<?xml version="1.0" encoding="UTF-8"?>
<svg width="19px" height="17px" viewBox="0 0 19 17" version="1.1" xmlns="http://www.w3.org/2000/svg" xmlns:xlink="http://www.w3.org/1999/xlink">
    <!-- Generator: Sketch 61 (89581) - https://sketch.com -->
    <title>形状备份</title>
    <desc>Created with Sketch.</desc>
    <g id="页面-1" stroke="none" stroke-width="1" fill="none" fill-rule="evenodd">
        <path d="M18.5905085,8.36554053 L18.5905085,8.36554053 C18.5905085,9.6489454 17.5501031,10.6893459 16.2667031,10.6893459 C14.9832983,10.6893459 13.9428977,9.64894049 13.9428977,8.36554053 L13.9428977,8.36554088 C13.9428977,7.08213601 14.9833015,6.04173548 16.2667031,6.04173548 C17.550108,6.04173548 18.5905085,7.08213928 18.5905085,8.36554088 C18.5905085,8.36554088 18.5905085,8.36554088 18.5905085,8.36554088 L18.5905085,8.36554053 Z M14.8696291,13.2896937 L14.8696292,13.2896939 C14.885048,13.4493705 14.8358328,13.6085664 14.7329891,13.7316829 L14.7329891,13.7316829 C12.5276599,16.3824863 8.91576351,17.3982832 5.65200823,16.2855454 C2.38892285,15.1696525 0.145506724,12.1579976 0.00701496771,8.70295834 C-0.13194883,5.24746158 1.86140912,2.06337663 5.02364845,0.689994606 L5.02364805,0.689994778 C8.18611613,-0.685089803 11.8691374,0.0343206233 14.2816978,2.49837752 L14.2816978,2.49837754 C14.5172024,2.72894115 14.5212088,3.10676254 14.2906453,3.34226715 C14.2876945,3.34528119 14.2847118,3.34826386 14.2816977,3.35121467 C12.9817592,4.56517269 10.2847498,7.24220232 9.21300731,8.31719638 C10.3270408,9.26624071 13.0486865,11.590984 14.6507204,12.88115 C14.7757414,12.9843272 14.853821,13.130262 14.8691587,13.2896762 L14.8696291,13.2896937 Z M6.97146524,4.64745516 L6.97146524,4.64768755 C6.97146524,4.13419783 6.55519915,3.71793174 6.04170943,3.71793174 C5.5282197,3.71793174 5.11195361,4.13419783 5.11195361,4.64768755 L5.11195361,4.64757149 C5.11195361,5.16106122 5.5282197,5.5773273 6.04170942,5.5773273 C6.55519914,5.5773273 6.97146524,5.16106122 6.97146524,4.64757149 L6.97146524,4.64745516 Z" id="形状备份" fill="#D5D8E5" fill-rule="nonzero"></path>
    </g>
</svg>