<?xml version="1.0" encoding="UTF-8"?>
<svg width="22px" height="22px" viewBox="0 0 22 22" version="1.1" xmlns="http://www.w3.org/2000/svg" xmlns:xlink="http://www.w3.org/1999/xlink">
    <!-- Generator: Sketch 61 (89581) - https://sketch.com -->
    <title>教室</title>
    <desc>Created with Sketch.</desc>
    <g id="页面-1" stroke="none" stroke-width="1" fill="none" fill-rule="evenodd">
        <g id="画板备份-100" transform="translate(-1443.000000, -141.000000)" fill="#FFFFFF" fill-rule="nonzero" stroke="#FFFFFF" stroke-width="0.4">
            <g id="编组-22" transform="translate(1423.000000, 124.000000)">
                <g id="教室" transform="translate(21.000000, 17.000000)">
                    <path d="M17.2831798,18.6228536 C17.3440493,18.5450757 17.3831798,18.5450757 17.3831798,18.5450757 L17.2831798,18.6450757 L17.2831798,18.6228534 L17.2831798,18.6228536 Z M18.1267908,2.46136467 C18.1267908,2.12880641 18.1267908,2.12712781 17.8455872,2.13720401 L17.845587,2.13720402 C17.6583394,2.14790381 17.4729435,2.18059368 17.2931055,2.23462008 C17.1855865,2.26485259 16.906038,2.35890937 16.8696457,2.3673072 L8.61384662,4.51045867 L8.61384663,4.51045867 C8.48066958,4.53897606 8.3553011,4.59689056 8.24662848,4.68009684 L8.24662848,19.7929976 C8.24662848,19.8988115 8.26316986,19.9441603 8.27971129,19.957597 C8.31941062,19.9827907 8.40046334,20.0079846 8.54768056,20.018062 C8.78091294,20.0314987 9.09850891,19.9928683 9.50377254,19.8870544 L17.7595716,17.7422243 L17.7595716,17.7422243 C17.8927317,17.7136546 18.01809,17.6557451 18.1267908,17.5725861 L18.1267908,2.4613617 L18.1267908,2.46136467 Z M16.8200214,0.555036083 C17.1343065,0.462658813 17.4601729,0.408912109 17.7876924,0.395475491 C18.9869425,0.355165405 19.8702521,1.06227062 19.8702521,2.46136536 L19.8702521,17.6498606 C19.8702521,18.5299644 19.1589738,19.1833215 18.1962646,19.4319015 L9.94211641,21.5767315 C7.73218806,22.1528294 6.50151413,21.2979207 6.50151413,19.7963715 L6.50151413,4.60620002 C6.50151413,3.72609622 7.21279251,3.07105819 8.17550169,2.82248052 L16.4296499,0.677650452 L16.4296503,0.677650306 C16.558587,0.632472736 16.6887634,0.591026896 16.8200196,0.553363077 L16.8200214,0.555036083 Z M9.61955867,13.1972698 L9.61955868,13.1972698 C9.38811063,13.2803571 9.233138,13.5022701 9.23249121,13.751532 L9.23249121,14.0572166 C9.23249121,14.3041157 9.38632607,14.5275005 9.61955868,14.6114788 L9.6195587,14.6114788 C9.87036758,14.7026113 10.1445402,14.7026113 10.3953491,14.6114789 L10.3953491,14.6114789 C10.6267971,14.5283916 10.7817697,14.3064786 10.7824165,14.0572167 L10.7824165,13.7515321 L10.7824165,13.7515379 C10.781771,13.5022736 10.6268014,13.2803607 10.3953536,13.1972711 L10.3953536,13.1972711 C10.1445447,13.1061386 9.87037213,13.1061386 9.61956324,13.197271 L9.61955867,13.1972698 Z M3.7821115,18.3536072 C4.26346609,18.3536072 4.65384216,18.7432701 4.65384216,19.2253111 L4.65384216,19.2253117 C4.65020173,19.7104367 4.25993812,20.1007126 3.78216125,20.0970945 C3.78214438,20.0970945 3.7821275,20.0970945 3.78211062,20.0970945 L2.75158311,20.0970945 L2.75158303,20.0970945 C1.31792676,20.1081915 0.146565606,18.9376068 0.134737879,17.4819103 L0.134737879,3.91757106 C0.134737879,2.47312652 1.30586609,1.30246623 2.75158303,1.30246623 L5.91263934,1.30246623 C6.39399393,1.30246623 6.78437,1.69380999 6.78437,2.17585103 C6.78437,2.65621348 6.39399393,3.04755494 5.91263934,3.04755494 L2.74993212,3.04755494 L2.74993215,3.04755494 C2.2727772,3.0438273 1.8827494,3.43309363 1.87820149,3.91758024 L1.87820149,17.4802432 C1.87820149,17.9622843 2.26857756,18.353628 2.74993215,18.353628 L3.78045966,18.353628 L3.7821115,18.3536072 Z" id="形状"></path>
                </g>
            </g>
        </g>
    </g>
</svg>