<?xml version="1.0" encoding="UTF-8"?>
<svg width="18px" height="18px" viewBox="0 0 18 18" version="1.1" xmlns="http://www.w3.org/2000/svg" xmlns:xlink="http://www.w3.org/1999/xlink">
    <!-- Generator: Sketch 61 (89581) - https://sketch.com -->
    <title>形状</title>
    <desc>Created with Sketch.</desc>
    <g id="页面-1" stroke="none" stroke-width="1" fill="none" fill-rule="evenodd">
        <g id="画板备份-100" transform="translate(-751.000000, -138.000000)" fill="#000000" fill-rule="nonzero">
            <g id="编组-26" transform="translate(730.000000, 130.000000)">
                <g id="编组-13" transform="translate(21.000000, 6.000000)">
                    <g id="日历" transform="translate(0.000000, 2.000000)">
                        <path d="M2.27025264,1.20045393 L2.27025264,1.20472063 L2.37025264,1.20472063 L2.27025264,1.20472063 L2.27025264,1.20045393 Z M3.37500393,14.2372607 L6.75000785,14.2372607 L6.75000785,11.9872581 L3.37500393,11.9872581 L3.37500393,14.2372607 Z M14.625017,0 L13.5000157,0 L13.5000157,3.37500393 L14.625017,3.37500393 L14.625017,0 Z M4.50000524,0 L3.37500393,0 L3.37500393,3.37500393 L4.50000524,3.37500393 L4.50000524,0 Z M3.37500393,10.8622568 L6.75000785,10.8622568 L6.75000785,8.61225416 L3.37500393,8.61225416 L3.37500393,10.8622568 Z M15.7620242,1.20045393 L15.8620242,1.20472063 L15.7620242,1.20472063 L15.7620242,1.20045393 Z M12.3750144,10.8622568 L14.625017,10.8622568 L14.625017,8.61225416 L12.3750144,8.61225416 L12.3750144,10.8622568 Z M15.7500183,1.12500131 L15.7500183,2.81250327 L15.7500183,2.81250327 C15.7500183,3.74448424 14.9944973,4.50000524 14.0625164,4.50000524 C13.1305354,4.50000524 12.3750144,3.74448424 12.3750144,2.81250327 L12.3750144,1.12500131 L5.62500655,1.12500131 L5.62500655,2.81250327 L5.62500655,2.81250327 C5.62500655,3.74448424 4.86948555,4.50000524 3.93750458,4.50000524 C3.00552361,4.50000524 2.25000262,3.74448424 2.25000262,2.81250327 L2.25000262,1.12500131 L2.25000274,1.12500131 C1.00590598,1.12995784 -3.93025544e-07,2.13989663 -3.93025544e-07,3.38400394 L-3.93025544e-07,15.7305242 L-3.93025544e-07,15.7304758 C-0.000862871134,16.9801378 1.00930212,17.9950332 2.25895005,18.0000253 L15.7409657,18.0000253 L15.7409658,18.0000253 C16.9885782,18.0000253 18.0000211,16.9886843 18.0000211,15.7410755 C18.0000211,15.7410594 18.0000211,15.7410434 18.0000211,15.7410273 L18.0000211,3.38401294 L18.0000211,3.38399501 C18.0000211,2.13988946 16.9940977,1.12994942 15.7500009,1.12500131 L15.7500183,1.12500131 Z M16.8615196,15.7687742 L16.8615196,15.7687742 C16.8615196,16.3900949 16.357839,16.8937693 15.7365183,16.8937693 L2.2365026,16.8937693 L2.23650255,16.8937693 C1.61518191,16.8937693 1.11150124,16.3900949 1.11150124,15.7687742 C1.11150124,15.7687742 1.11150124,15.7687742 1.11150124,15.7687742 L1.11150124,7.51877047 L1.11150124,7.51877064 C1.11150124,6.89744999 1.61518191,6.39376933 2.23650255,6.39376933 L15.7365183,6.39376933 L15.7365182,6.39376933 C16.3578389,6.39376933 16.8615196,6.89744999 16.8615196,7.51877064 L16.8615196,15.7687744 L16.8615196,15.7687742 Z M7.87500916,10.8622744 L11.2500131,10.8622744 L11.2500131,8.61227174 L7.87500916,8.61227174 L7.87500916,10.8622744 L7.87500916,10.8622744 Z M7.87500916,14.2372783 L11.2500131,14.2372783 L11.2500131,11.9872757 L7.87500916,11.9872757 L7.87500916,14.2372783 L7.87500916,14.2372783 Z M12.3750144,14.2372783 L14.625017,14.2372783 L14.625017,11.9872757 L12.3750144,11.9872757 L12.3750144,14.2372783 Z" id="形状"></path>
                    </g>
                </g>
            </g>
        </g>
    </g>
</svg>