<?xml version="1.0" encoding="UTF-8"?>
<svg width="20px" height="20px" viewBox="0 0 20 20" version="1.1" xmlns="http://www.w3.org/2000/svg" xmlns:xlink="http://www.w3.org/1999/xlink">
    <!-- Generator: Sketch 61 (89581) - https://sketch.com -->
    <title>形状</title>
    <desc>Created with Sketch.</desc>
    <g id="页面-1" stroke="none" stroke-width="1" fill="none" fill-rule="evenodd">
        <g id="画板备份-100" transform="translate(-688.000000, -475.000000)" fill="#D5D8E5" fill-rule="nonzero">
            <g id="编组-23" transform="translate(688.000000, 471.000000)">
                <g id="编组-25">
                    <path d="M10.0009796,4.42324912 L10.0009792,4.42324912 C4.71134802,4.42324912 0.423255144,8.711342 0.423255144,14.0009732 C0.423255144,19.2906043 4.71134802,23.5786972 10.0009792,23.5786972 C15.2906103,23.5786972 19.5787032,19.2906043 19.5787032,14.0009732 L19.5787032,14.0009732 C19.5787032,8.711342 15.2906103,4.42324912 10.0009792,4.42324912 C10.0009792,4.42324912 10.0009792,4.42324912 10.0009792,4.42324912 L10.0009796,4.42324912 Z M14.0427753,15.533419 L9.7902606,15.533419 L9.79026056,15.533419 C9.27187636,15.533419 8.85164365,15.1131797 8.85164365,14.5947955 C8.85164365,14.5947955 8.85164365,14.5947955 8.85164365,14.5947955 L8.85164365,8.42675319 L8.85164365,8.42675333 C8.85164365,7.90836913 9.27187636,7.48813642 9.79026056,7.48813642 C10.3086448,7.48813642 10.7288775,7.90836913 10.7288775,8.42675333 C10.7288775,8.42675333 10.7288775,8.42675333 10.7288775,8.42675333 L10.7288775,13.6561852 L14.0427602,13.6561852 L14.0427602,13.6561852 C14.5611444,13.6561852 14.9813771,14.0764179 14.9813771,14.5948021 C14.9813771,15.1131863 14.5611444,15.533419 14.0427602,15.533419 L14.0427753,15.533419 Z" id="形状"></path>
                </g>
            </g>
        </g>
    </g>
</svg>