<?xml version="1.0" encoding="UTF-8"?>
<svg width="16px" height="18px" viewBox="0 0 16 18" version="1.1" xmlns="http://www.w3.org/2000/svg" xmlns:xlink="http://www.w3.org/1999/xlink">
    <!-- Generator: Sketch 61 (89581) - https://sketch.com -->
    <title>滑动</title>
    <desc>Created with Sketch.</desc>
    <g id="页面-1" stroke="none" stroke-width="1" fill="none" fill-rule="evenodd">
        <g id="画板备份-100" transform="translate(-1595.000000, -251.000000)" fill="#000000" fill-rule="nonzero">
            <g id="滑动" transform="translate(1595.000000, 251.000000)">
                <path d="M9.05656643,9.56083681 C9.4570471,9.15064328 9.4570471,8.48552063 9.05656643,8.0752488 L1.76000585,0.583800846 C1.35950608,0.173647417 0.71013293,0.173647417 0.309593054,0.583800846 C-0.0909468219,0.994091774 -0.0909468219,1.65915713 0.309593054,2.06944806 L6.88263542,8.81808959 L0.309593054,15.5667502 C-0.0909468219,15.9770412 -0.0909468219,16.6421447 0.309593054,17.0523783 C0.710092826,17.4626311 1.35946598,17.4626311 1.76000585,17.0523783 L9.05654733,9.56091129 L9.05656689,9.56083311 L9.05656643,9.56083681 Z M6.6366209,2.06942705 L13.2096251,8.81806859 L6.6366209,15.5667483 C6.23608103,15.9770392 6.23608103,16.6421428 6.6366209,17.0523764 C7.03714168,17.4626292 7.68649383,17.4626292 8.0870528,17.0523764 L15.3836325,9.56089028 C15.7840348,9.15071585 15.7840348,8.4855741 15.3836325,8.07530227 L8.0870146,0.583797026 C7.68649383,0.173643598 7.03714168,0.173643598 6.63658271,0.583797026 C6.23608294,0.994068858 6.23608294,1.65915331 6.6366218,2.06942514 L6.6366209,2.06942705 Z" id="形状"></path>
            </g>
        </g>
    </g>
</svg>