<?xml version="1.0" encoding="UTF-8"?>
<svg width="20px" height="20px" viewBox="0 0 20 20" version="1.1" xmlns="http://www.w3.org/2000/svg" xmlns:xlink="http://www.w3.org/1999/xlink">
    <!-- Generator: Sketch 61 (89581) - https://sketch.com -->
    <title>形状</title>
    <desc>Created with Sketch.</desc>
    <g id="页面-1" stroke="none" stroke-width="1" fill="none" fill-rule="evenodd">
        <g id="画板备份-100" transform="translate(-688.000000, -519.000000)" fill="#D5D8E5" fill-rule="nonzero">
            <g id="编组-23" transform="translate(688.000000, 471.000000)">
                <g id="编组-25">
                    <path d="M19.2332606,62.2260104 L10.672017,67.3641196 L10.6720171,67.3641195 C10.4103671,67.5084535 10.1153393,67.5813877 9.81657426,67.5755919 C9.50686914,67.5755919 9.19716202,67.504646 8.95976639,67.3641195 L0.398522782,62.2260103 C-0.0735404486,61.9435914 -0.0735404486,61.4824442 0.398522782,61.1986603 L1.85018272,60.3282103 L8.45768496,64.2929914 C8.83697156,64.519473 9.31722084,64.6449918 9.81657026,64.6449918 C10.3145547,64.6449918 10.796169,64.5194724 11.1754556,64.2929914 L17.7815988,60.3282103 L19.2332587,61.1986603 C19.705322,61.4824442 19.705322,61.9435914 19.2332587,62.2260103 L19.2332606,62.2260104 Z M19.2332606,58.3171686 L10.672017,63.4539188 L10.6720171,63.4539187 C10.4104969,63.5987276 10.1154612,63.6721343 9.8165742,63.6667562 L9.81657419,63.6667562 C9.51724153,63.6722453 9.2217361,63.5988399 8.95976632,63.4539187 L0.398522711,58.3171686 C-0.0735405197,58.0333846 -0.0735405197,57.5736025 0.398522711,57.2898185 L1.85018265,56.4193686 L8.45768489,60.3827907 C8.83697148,60.6092722 9.31722077,60.7361561 9.81657019,60.7361561 C10.3145546,60.7361561 10.7961689,60.6092722 11.1754555,60.3827907 L17.7815987,56.4193686 L19.2332587,57.2898185 C19.7053219,57.5736025 19.7053219,58.0333846 19.2332587,58.3171686 L19.2332606,58.3171686 Z M19.2332606,54.4083269 L10.672017,59.546436 L10.6720171,59.546436 C10.4102731,59.6905297 10.1153093,59.7634464 9.81657422,59.7579084 C9.5068691,59.7579084 9.19716198,59.6869625 8.95976635,59.546436 L0.398522741,54.4083268 C-0.0735404904,54.1259079 -0.0735404904,53.6647607 0.398522741,53.3809768 L8.95976635,48.2455856 C9.19716198,48.103694 9.5068671,48.0327482 9.81657422,48.0327482 C10.1249163,48.0327482 10.4359865,48.103694 10.6720171,48.2455856 L19.2332607,53.3823358 C19.7053239,53.6661197 19.7053239,54.1272669 19.2332607,54.4096858 L19.2332606,54.4083269 Z" id="形状"></path>
                </g>
            </g>
        </g>
    </g>
</svg>