<?xml version="1.0" encoding="UTF-8"?>
<svg width="18px" height="18px" viewBox="0 0 18 18" version="1.1" xmlns="http://www.w3.org/2000/svg" xmlns:xlink="http://www.w3.org/1999/xlink">
    <!-- Generator: Sketch 61 (89581) - https://sketch.com -->
    <title>形状</title>
    <desc>Created with Sketch.</desc>
    <g id="页面-1" stroke="none" stroke-width="1" fill="none" fill-rule="evenodd">
        <g id="画板备份-76" transform="translate(-543.000000, -403.000000)" fill="#D5D8E5" fill-rule="nonzero">
            <g id="编组-3" transform="translate(518.000000, 373.000000)">
                <g id="编组-27">
                    <g id="编组-25备份">
                        <g id="编组-22" transform="translate(25.000000, 24.000000)">
                            <g id="课程" transform="translate(0.000000, 6.000000)">
                                <path d="M17.0162127,14.6113484 L14.0782662,14.6113484 L14.6113444,17.8178205 L12.6072942,17.8178205 L12.0742161,14.6113484 L5.92578785,14.6113484 L5.39270968,17.8178205 L3.38865954,17.8178205 L3.92173771,14.6113484 L0.983791244,14.6113484 L0.983791209,14.6113484 C0.541068963,14.6113484 0.182171156,14.2524506 0.182171156,13.8097284 C0.182171156,13.8097284 0.182171156,13.8097284 0.182171156,13.8097284 L0.182171156,0.983799365 L0.182171156,0.983799486 C0.182171156,0.54107724 0.541068963,0.182179433 0.983791209,0.182179433 L17.0161923,0.182179433 L17.0161922,0.182179433 C17.4589145,0.182179433 17.8178123,0.54107724 17.8178123,0.983799486 L17.8178123,13.8097285 L17.8178123,13.8097285 C17.8178123,14.2524507 17.4589145,14.6113485 17.0161922,14.6113485 C17.0161922,14.6113485 17.0161922,14.6113485 17.0161922,14.6113485 L17.0162127,14.6113484 Z M6.99595182,4.19028367 L6.99595182,10.6032482 L11.8056803,7.39677609 L6.99595182,4.19028367 Z" id="形状"></path>
                            </g>
                        </g>
                    </g>
                </g>
            </g>
        </g>
    </g>
</svg>