<?xml version="1.0" encoding="UTF-8"?>
<svg width="17px" height="19px" viewBox="0 0 17 19" version="1.1" xmlns="http://www.w3.org/2000/svg" xmlns:xlink="http://www.w3.org/1999/xlink">
    <!-- Generator: Sketch 61 (89581) - https://sketch.com -->
    <title>形状备份</title>
    <desc>Created with Sketch.</desc>
    <g id="页面-1" stroke="none" stroke-width="1" fill="none" fill-rule="evenodd">
        <path d="M8.36222605,0 C5.68089129,0 3.50805468,2.09199189 3.50925945,4.67500544 C3.50925945,7.25560844 5.68087303,9.35001088 8.36222605,9.35001088 C11.0435608,9.35001088 13.2139706,7.25560844 13.2139706,4.67500544 C13.2163815,2.09199189 11.0435608,0 8.36222605,0 Z M10.3833441,10.9078469 L6.34112624,10.9078469 C2.87769594,10.9078469 0.0696794881,13.6112053 0.0696794881,16.9458355 L0.0696794881,17.3361236 C0.0696794881,18.6988128 2.87769594,18.7000181 6.34112624,18.7000181 L10.38696,18.7000181 C13.8494772,18.7000181 16.6584067,18.6496488 16.6584067,17.3361236 L16.6584067,16.9458355 C16.6559938,13.6112053 13.849185,10.9078469 10.3833441,10.9078469 Z" id="形状备份" fill="#D5D8E5" fill-rule="nonzero"></path>
    </g>
</svg>