<?xml version="1.0" encoding="UTF-8"?>
<svg width="19px" height="19px" viewBox="0 0 19 19" version="1.1" xmlns="http://www.w3.org/2000/svg" xmlns:xlink="http://www.w3.org/1999/xlink">
    <!-- Generator: Sketch 61 (89581) - https://sketch.com -->
    <title>形状备份</title>
    <desc>Created with Sketch.</desc>
    <g id="页面-1" stroke="none" stroke-width="1" fill="none" fill-rule="evenodd">
        <path d="M9.5,0 L9.5,0 C4.25329465,0 0,4.25329465 0,9.5 C0,14.7467054 4.25329465,19 9.5,19 C14.7467054,19 19,14.7467054 19,9.5 L19,9.5 C19,4.25329465 14.7467054,0 9.5,0 C9.5,0 9.5,0 9.5,0 L9.5,0 Z M13.5089966,11.0200099 L9.29099142,11.0200099 L9.29099138,11.0200099 C8.77681392,11.0200099 8.35999142,10.6031809 8.35999142,10.0890035 C8.35999142,10.0890035 8.35999142,10.0890035 8.35999142,10.0890035 L8.35999142,3.9710153 L8.35999142,3.97101544 C8.35999142,3.45683798 8.77681392,3.04001548 9.29099138,3.04001548 C9.80516885,3.04001548 10.2219913,3.45683798 10.2219913,3.97101544 C10.2219913,3.97101544 10.2219913,3.97101544 10.2219913,3.97101544 L10.2219913,9.15801003 L13.5089817,9.15801003 L13.5089816,9.15801003 C14.0231591,9.15801001 14.4399816,9.57483252 14.4399816,10.08901 C14.4399816,10.6031875 14.0231591,11.0200099 13.5089816,11.0200099 L13.5089966,11.0200099 Z" id="形状备份" fill="#D5D8E5" fill-rule="nonzero"></path>
    </g>
</svg>