<?xml version="1.0" encoding="UTF-8"?>
<svg width="34px" height="34px" viewBox="0 0 34 34" version="1.1" xmlns="http://www.w3.org/2000/svg" xmlns:xlink="http://www.w3.org/1999/xlink">
    <!-- Generator: Sketch 61 (89581) - https://sketch.com -->
    <title>编组 3备份</title>
    <desc>Created with Sketch.</desc>
    <g id="页面-1" stroke="none" stroke-width="1" fill="none" fill-rule="evenodd">
        <g id="画板" transform="translate(-447.000000, -133.000000)">
            <g id="编组-3备份" transform="translate(464.000000, 150.000000) scale(-1, 1) translate(-464.000000, -150.000000) translate(447.000000, 133.000000)">
                <circle id="椭圆形" stroke="#D5D8E5" cx="17" cy="17" r="16.5"></circle>
                <g id="返-回" transform="translate(12.000000, 10.000000)" fill="#000000" fill-rule="nonzero" stroke="#000000" stroke-linejoin="round">
                    <path d="M0.224801791,6.71273593 L0.224801777,6.71273595 C0.272161207,6.65667401 0.328699866,6.60906442 0.392005096,6.57193891 L6.64801238,0.310322247 L6.6480124,0.310322219 C6.79414382,0.159043449 6.99527531,0.0733406935 7.2056068,0.0727281927 C7.40560703,0.0727281927 7.60560727,0.15193141 7.7648262,0.30232221 C8.07442031,0.606322564 8.07760782,1.10232314 7.77281059,1.411136 L1.91041314,7.27992408 L7.76641995,13.1207434 L7.76641994,13.1207434 C8.07370467,13.4286375 8.07726562,13.9260771 7.77441998,14.2383384 C7.47360713,14.5495419 6.97441905,14.5495419 6.66480932,14.2463384 L0.328005068,7.92554982 L0.328005099,7.92554984 C0.111215784,7.77054419 -0.0115390459,7.51567124 0.00241097037,7.24953343 L0.00241097037,7.2255334 L0.00241096644,7.22553348 C0.0115404302,7.03335982 0.0903085687,6.85107992 0.224004974,6.71273601 L0.224801791,6.71273593 Z" id="路径"></path>
                </g>
            </g>
        </g>
    </g>
</svg>