<?xml version="1.0" encoding="UTF-8"?>
<svg width="151px" height="17px" viewBox="0 0 151 17" version="1.1" xmlns="http://www.w3.org/2000/svg" xmlns:xlink="http://www.w3.org/1999/xlink">
    <!-- Generator: Sketch 61 (89581) - https://sketch.com -->
    <title>编组备份 3</title>
    <desc>Created with Sketch.</desc>
    <defs>
        <polygon id="path-1" points="0 0.122582639 6.91076667 0.122582639 6.91076667 15.7291667 0 15.7291667"></polygon>
        <polygon id="path-3" points="0.166938889 0.161108611 10.1671236 0.161108611 10.1671236 12.7930556 0.166938889 12.7930556"></polygon>
        <polygon id="path-5" points="0 16.5214553 150.862842 16.5214553 150.862842 -4.19444444e-05 0 -4.19444444e-05"></polygon>
    </defs>
    <g id="页面-1" stroke="none" stroke-width="1" fill="none" fill-rule="evenodd">
        <g id="编组备份-3">
            <g id="编组" transform="translate(0.000000, 0.792289)">
                <mask id="mask-2" fill="white">
                    <use xlink:href="#path-1"></use>
                </mask>
                <g id="Clip-2"></g>
                <path d="M1.23526389,12.4571854 L1.23526389,6.00382292 L0,6.00382292 L0,3.25751042 L1.23526389,3.25751042 L1.23526389,0.122582639 L4.48490972,0.122582639 L4.48490972,3.25751042 L6.91076667,3.25751042 L6.91076667,6.00382292 L4.48490972,6.00382292 L4.48490972,11.7929951 C4.48490972,12.5029049 4.80515556,12.8458007 5.49283472,12.8458007 C5.99595833,12.8458007 6.47664167,12.7088521 6.88853611,12.5029049 L6.88853611,15.0881507 C6.24741528,15.4543257 5.46871667,15.7292715 4.48490972,15.7292715 C2.608525,15.7292715 1.23526389,14.9967118 1.23526389,12.4571854" id="Fill-1" fill="#FFFFFF" mask="url(#mask-2)"></path>
            </g>
            <g id="编组" transform="translate(8.808333, 3.728400)">
                <mask id="mask-4" fill="white">
                    <use xlink:href="#path-3"></use>
                </mask>
                <g id="Clip-4"></g>
                <path d="M7.055475,8.53636556 L7.055475,7.50704889 C6.57458194,7.2778225 5.91144028,7.11759472 5.24808889,7.11759472 C4.05749583,7.11759472 3.30270556,7.71278639 3.30270556,8.83375167 L3.30270556,8.87926139 C3.30270556,9.8863475 3.94382639,10.39031 4.881075,10.4127503 C6.14066667,10.4360294 7.055475,9.65816972 7.055475,8.53636556 M0.166938889,9.06297806 L0.166938889,8.92581972 C0.166938889,6.22501694 1.92965417,5.01198361 4.44695,5.01198361 C5.47542778,5.01198361 6.25433611,5.21793083 7.00870694,5.51615583 L7.00870694,5.14998083 C7.00870694,3.73121 6.16289722,2.99886 4.69840694,2.99886 C3.55437222,2.99886 2.63935417,3.365035 1.88309583,3.68549056 L0.990518056,1.14491556 C2.18111111,0.550562778 3.416375,0.161108611 5.17909028,0.161108611 C6.84868889,0.161108611 8.10828056,0.618512778 8.90941944,1.41965167 C9.75522917,2.26651 10.1671236,3.54749333 10.1671236,5.12670167 L10.1671236,12.5638711 L6.98647639,12.5638711 L6.98647639,11.2363294 C6.25433611,12.1976961 5.24808889,12.7930975 3.80582917,12.7930975 C1.79165694,12.7930975 0.166938889,11.4420669 0.166938889,9.06297806" id="Fill-3" fill="#FFFFFF" mask="url(#mask-4)"></path>
            </g>
            <mask id="mask-6" fill="white">
                <use xlink:href="#path-5"></use>
            </mask>
            <g id="Clip-6"></g>
            <polygon id="Fill-5" fill="#FFFFFF" mask="url(#mask-6)" points="22.1615569 16.5214553 25.4109931 16.5214553 25.4109931 -4.19444444e-05 22.1615569 -4.19444444e-05"></polygon>
            <polygon id="Fill-7" fill="#FFFFFF" mask="url(#mask-6)" points="28.7332447 -8.38888889e-05 31.9826808 -8.38888889e-05 31.9826808 8.7870675 35.3235558 4.25559944 39.1226739 4.25559944 35.2321169 9.12996333 39.2141128 16.5214133 35.5062239 16.5214133 32.9889281 11.6015397 31.9826808 12.9058022 31.9826808 16.5214133 28.7332447 16.5214133"></polygon>
            <path d="M41.2115282,4.25559944 L44.4609643,4.25559944 L44.4609643,5.90359667 C45.1931046,4.87428 46.1081226,4.02742167 47.6414018,4.02742167 C49.061431,4.02742167 50.0899088,4.71405222 50.662031,5.8123675 C51.5541893,4.7364925 52.6537629,4.02742167 54.1404838,4.02742167 C56.3150935,4.02742167 57.7795838,5.44640222 57.7795838,8.14615639 L57.7795838,16.5214133 L54.5523782,16.5214133 L54.5523782,9.12996333 C54.5523782,7.7111925 53.9336976,6.95640222 52.8586615,6.95640222 C51.7834157,6.95640222 51.120274,7.7111925 51.120274,9.12996333 L51.120274,16.5214133 L47.8708379,16.5214133 L47.8708379,9.12996333 C47.8708379,7.7111925 47.2762754,6.95640222 46.1993518,6.95640222 C45.1243157,6.95640222 44.4609643,7.7111925 44.4609643,9.12996333 L44.4609643,16.5214133 L41.2115282,16.5214133 L41.2115282,4.25559944 Z" id="Fill-8" fill="#FFFFFF" mask="url(#mask-6)"></path>
            <path d="M67.1722242,12.2647653 L67.1722242,11.2354486 C66.6915408,11.0062222 66.0281894,10.8459944 65.3648381,10.8459944 C64.174245,10.8459944 63.4194547,11.4411861 63.4194547,12.5621514 L63.4194547,12.6076611 C63.4194547,13.6147472 64.0605756,14.1187097 64.9978242,14.14115 C66.2574158,14.1644292 67.1722242,13.3865694 67.1722242,12.2647653 M60.2836881,12.7913778 L60.2836881,12.6542194 C60.2836881,9.95341667 62.0464033,8.74038333 64.5636992,8.74038333 C65.5921769,8.74038333 66.3710853,8.94633056 67.1254561,9.24455556 L67.1254561,8.87838056 C67.1254561,7.45960972 66.2796464,6.72725972 64.8151561,6.72725972 C63.6711214,6.72725972 62.7561033,7.09343472 61.999845,7.41389028 L61.1072672,4.87331528 C62.2978603,4.2789625 63.5331242,3.88950833 65.2958394,3.88950833 C66.9654381,3.88950833 68.2250297,4.3469125 69.0261686,5.14805139 C69.8719783,5.99490972 70.2838728,7.27589306 70.2838728,8.85510139 L70.2838728,16.2922708 L67.1032256,16.2922708 L67.1032256,14.9647292 C66.3710853,15.9260958 65.3648381,16.5214972 63.9225783,16.5214972 C61.9084061,16.5214972 60.2836881,15.1704667 60.2836881,12.7913778" id="Fill-9" fill="#FFFFFF" mask="url(#mask-6)"></path>
            <path d="M73.7456946,13.249474 L73.7456946,6.79611153 L72.510221,6.79611153 L72.510221,4.04979903 L73.7456946,4.04979903 L73.7456946,0.91487125 L76.9951307,0.91487125 L76.9951307,4.04979903 L79.4211974,4.04979903 L79.4211974,6.79611153 L76.9951307,6.79611153 L76.9951307,12.5852837 C76.9951307,13.2951935 77.3155863,13.6380893 78.0032654,13.6380893 C78.5061793,13.6380893 78.9870724,13.5011407 79.3987571,13.2951935 L79.3987571,15.8804393 C78.757846,16.2466143 77.9791474,16.5215601 76.9951307,16.5215601 C75.1189557,16.5215601 73.7456946,15.7890004 73.7456946,13.249474" id="Fill-10" fill="#FFFFFF" mask="url(#mask-6)"></path>
            <path d="M88.0225768,5.34208639 C88.6957851,5.34208639 89.2414824,5.86681139 89.2414824,6.51401417 C89.2414824,7.16121694 88.6957851,7.68594194 88.0225768,7.68594194 C87.3495782,7.68594194 86.803881,7.16121694 86.803881,6.51401417 C86.803881,5.86681139 87.3495782,5.34208639 88.0225768,5.34208639 L88.0225768,5.34208639 Z M91.1113657,9.66655861 L91.1113657,4.83057389 C91.1113657,4.08165583 90.4140393,3.47241278 89.557324,3.47241278 L82.9563171,3.47241278 C82.1033768,3.47241278 81.4098254,4.07892944 81.4098254,4.8240725 L81.4098254,8.65422944 C81.4098254,13.0860794 83.430499,15.3527572 88.3845574,16.4783364 L88.5535935,16.5167156 L89.4480588,14.3014197 L89.2718921,14.2447947 C86.2986601,13.2903489 85.0701074,11.9158294 85.1955212,9.66655861 L91.1113657,9.66655861 Z" id="Fill-11" fill="#EE2A58" mask="url(#mask-6)"></path>
            <polygon id="Fill-12" fill="#FFFFFF" mask="url(#mask-6)" points="97.5300611 16.4470039 98.1493708 16.4470039 98.1493708 3.54678028 97.5300611 3.54678028"></polygon>
            <path d="M131.315263,7.58022097 L131.315263,7.58022097 L133.920013,7.58022097 L133.920013,8.96480708 L132.700058,8.96480708 C131.935201,8.96480708 131.315263,8.34486819 131.315263,7.58022097 L131.315263,7.58022097 Z M131.270382,10.7086474 L132.692508,10.7159876 L132.962001,13.5602404 C133.006672,14.0493126 133.14404,14.4108737 133.373476,14.6453432 C133.513151,14.7948751 133.735247,14.8800224 134.039554,14.899946 L134.039554,16.2845321 C133.38585,16.2094515 132.882097,16.024896 132.527667,15.730446 C132.178479,15.4410293 131.929119,15.0842918 131.779378,14.6602335 C131.719607,14.5006349 131.667176,14.2038779 131.622296,13.7697529 L131.270382,10.7086474 Z M125.06596,7.58022097 L125.06596,7.58022097 L127.70049,7.58022097 L127.70049,8.96480708 L126.450756,8.96480708 C125.685899,8.96480708 125.06596,8.34486819 125.06596,7.58022097 L125.06596,7.58022097 Z M124.901328,4.75882792 L124.901328,4.75882792 L128.822924,4.75882792 L128.830683,3.63597514 L130.23016,3.63597514 L130.23016,4.75882792 L132.108642,4.75882792 L132.108642,3.63597514 L133.493438,3.63597514 L133.493438,4.75882792 L134.054864,4.75882792 L134.054864,6.16585431 L130.23016,6.16585431 L130.23016,13.7022224 C130.23016,15.4387224 129.499278,16.3067626 128.037304,16.3067626 C127.912519,16.3067626 127.727964,16.3017293 127.483428,16.2918724 L127.483428,14.907496 C127.603179,14.9123196 127.69294,14.9171432 127.753131,14.9223862 C127.837649,14.9272099 127.902663,14.9297265 127.947543,14.9297265 C128.5312,14.9297265 128.822924,14.5505487 128.822924,13.7921932 L128.822924,6.16585431 L126.308354,6.16585431 C125.531333,6.16585431 124.901328,5.53584875 124.901328,4.75882792 L124.901328,4.75882792 Z M124.714256,16.2845321 L124.714256,14.899946 C125.023386,14.8800224 125.265615,14.7801946 125.440104,14.6004626 C125.604736,14.4259737 125.724697,13.9817821 125.799358,13.2683071 L126.068851,10.7159876 L127.453438,10.7159876 L127.169054,13.3956085 C127.084117,14.2187682 126.951992,14.7850182 126.772469,15.0945682 C126.368335,15.7929432 125.682333,16.1897376 124.714256,16.2845321 L124.714256,16.2845321 Z M120.538267,14.899946 L120.538267,14.899946 L121.903768,14.899946 L121.903768,10.2371918 L121.758221,10.2371918 C121.084383,10.2371918 120.538267,9.69107514 120.538267,9.01744736 L120.538267,8.84505569 L121.903768,8.84505569 L121.903768,5.37247514 L121.758221,5.37247514 C121.084383,5.37247514 120.538267,4.82614875 120.538267,4.15231125 L120.538267,3.98767931 L124.377651,3.98767931 L124.377651,5.37247514 L123.265704,5.37247514 L123.265704,8.84505569 L124.400092,8.84505569 L124.400092,10.2371918 L123.265704,10.2371918 L123.265704,14.899946 L124.400092,14.899946 L124.400092,16.2845321 L121.922853,16.2845321 C121.157996,16.2845321 120.538267,15.6645932 120.538267,14.899946 L120.538267,14.899946 Z" id="Fill-13" fill="#FFFFFF" mask="url(#mask-6)"></path>
            <path d="M112.508884,5.08792403 C112.748596,5.08792403 113.017879,5.13783792 113.317153,5.23766569 C113.556656,5.31232681 113.788818,5.48702542 114.013221,5.76155181 L114.78416,6.68978236 C115.103357,7.07881708 115.59956,7.30091292 116.208593,7.35565042 C116.462986,7.37557403 116.814691,7.38564069 117.251123,7.38564069 L117.251123,6.03104486 C116.669143,6.02118792 116.413073,5.98364764 116.208593,5.91863375 C115.964057,5.84376292 115.720779,5.66927403 115.511267,5.39474764 L114.762139,4.39940597 C114.642598,4.23498375 114.463704,4.07286847 114.234478,3.94787403 C113.900181,3.75849486 113.277096,3.64629347 112.374032,3.64629347 L108.544714,3.64629347 L107.474292,5.06841986 L112.508884,5.08792403 Z" id="Fill-14" fill="#FFFFFF" mask="url(#mask-6)"></path>
            <path d="M105.870273,6.59981153 L106.284055,6.07089208 L108.118076,3.64629347 L107.793846,3.64629347 L106.36396,3.64629347 L104.912472,5.53651986 C104.552379,6.03398097 104.238215,6.11262681 103.427429,5.97462958 C103.388001,5.96770875 103.427429,5.97462958 103.427429,5.97462958 C103.427429,5.97462958 103.41904,6.44881153 103.789619,6.81897125 C104.099589,7.12852125 104.585935,7.22268653 104.911214,7.22268653 C105.281164,7.22268653 105.500953,7.05889347 105.870273,6.59981153" id="Fill-15" fill="#FFFFFF" mask="url(#mask-6)"></path>
            <path d="M110.994123,14.850871 L110.994123,12.3771974 L116.814753,12.3771974 L116.814753,11.0674821 L110.967069,11.0674821 L110.978394,9.17578764 L116.814753,9.17578764 L116.814753,7.72073486 L103.827076,7.72073486 C103.827076,8.44826125 104.457081,9.17578764 105.234102,9.17578764 L109.582692,9.17578764 L109.593808,9.17578764 L109.582692,11.0674821 L103.827076,11.0674821 C103.827076,11.7952182 104.457081,12.3771974 105.234102,12.3771974 L109.53907,12.3771974 L109.53907,14.850871 L103.37806,14.850871 C103.37806,15.7239446 104.007856,16.3059237 104.785087,16.3059237 L117.251185,16.3059237 L117.251185,14.850871 L110.994123,14.850871 Z" id="Fill-16" fill="#FFFFFF" mask="url(#mask-6)"></path>
            <path d="M143.401135,5.05065639 L144.643529,5.05065639 L144.643529,3.66586056 L142.016339,3.66586056 C142.016339,4.4307175 142.636488,5.05065639 143.401135,5.05065639" id="Fill-17" fill="#FFFFFF" mask="url(#mask-6)"></path>
            <path d="M143.393543,7.74489486 C143.393543,7.46554486 143.613122,7.32566014 144.05228,7.32566014 L149.373772,7.32566014 L149.366012,9.74312819 C149.366012,9.99752125 149.321341,10.1699129 149.231371,10.259674 C149.166357,10.3244782 149.014308,10.3569851 148.774805,10.3569851 L143.393543,10.3569851 L143.393543,7.74489486 Z M142.368211,11.3749768 C142.607923,11.6195129 142.919361,11.7466046 143.303782,11.7466046 C143.303782,11.7466046 149.287366,11.7491212 149.333296,11.7466046 C149.689194,11.7466046 149.982386,11.6989976 150.241603,11.5094087 C150.580933,11.260049 150.750598,10.8859046 150.750598,10.3867657 L150.750598,7.22834903 C150.750598,6.77451014 150.551153,6.41043236 150.152051,6.13569625 C149.967286,6.00608792 149.613065,5.94107403 149.089179,5.94107403 L143.363553,5.94107403 C142.959628,5.94107403 142.630154,6.06606847 142.375761,6.31542819 C142.136468,6.55010736 142.016507,6.85420458 142.016507,7.22834903 L142.016507,10.1999032 C142.016507,10.539024 142.043771,10.7984504 142.098928,10.9781824 C142.138775,11.1029671 142.228536,11.2353018 142.368211,11.3749768 L142.368211,11.3749768 Z" id="Fill-18" fill="#FFFFFF" mask="url(#mask-6)"></path>
            <path d="M149.365928,5.05065639 L150.608532,5.05065639 L150.608532,3.66586056 L147.981342,3.66586056 C147.981342,4.4307175 148.601281,5.05065639 149.365928,5.05065639" id="Fill-19" fill="#FFFFFF" mask="url(#mask-6)"></path>
            <path d="M143.873828,12.1136185 C143.790778,12.5668282 143.715278,12.9149671 143.648167,13.1485976 C143.523172,13.5827226 143.348893,13.9394601 143.12428,14.2188101 C142.81473,14.5979879 142.405562,14.8574143 141.896776,14.997299 L141.896776,16.3818851 C142.72476,16.2518574 143.393564,15.9328699 143.90256,15.423874 C144.549972,14.7810754 145.008215,13.6735324 145.282951,12.1136185 L143.873828,12.1136185 Z" id="Fill-20" fill="#FFFFFF" mask="url(#mask-6)"></path>
            <path d="M150.062059,14.997299 C149.508393,14.997299 149.166336,14.9098449 149.036727,14.7351462 C148.927043,14.5906476 148.872095,14.3784087 148.872095,14.0992685 L148.872095,12.1136185 L147.487719,12.1136185 L147.487719,14.6304949 C147.487719,14.8649643 147.557347,15.114324 147.697232,15.3787837 C147.861863,15.688124 148.088783,15.9353865 148.3782,16.1197324 C148.647483,16.294431 149.121665,16.3818851 149.800326,16.3818851 L150.862779,16.3818851 L150.862779,14.997299 L150.062059,14.997299 Z" id="Fill-21" fill="#FFFFFF" mask="url(#mask-6)"></path>
            <path d="M140.375116,14.9223443 C140.309892,14.8522971 140.277595,14.6780179 140.277595,14.3984582 L140.28892,7.13871375 L137.411112,7.13871375 C137.411112,7.90336097 138.03105,8.52329986 138.795907,8.52329986 L138.892589,8.52329986 L138.893218,9.21181792 L138.893218,15.064536 C138.893218,15.5584318 139.085114,15.9476762 139.469325,16.2320596 C139.648848,16.3616679 139.983145,16.4266818 140.472217,16.4266818 L141.58731,16.4266818 L141.58731,15.0420957 L140.868802,15.0420957 C140.614409,15.0420957 140.449777,15.0022485 140.375116,14.9223443" id="Fill-22" fill="#FFFFFF" mask="url(#mask-6)"></path>
            <path d="M138.795844,5.2302625 L140.487044,5.2302625 L140.487044,3.84546667 L137.411049,3.84546667 C137.411049,4.61032361 138.031197,5.2302625 138.795844,5.2302625" id="Fill-23" fill="#FFFFFF" mask="url(#mask-6)"></path>
        </g>
    </g>
</svg>