<?xml version="1.0" encoding="UTF-8"?>
<svg width="21px" height="24px" viewBox="0 0 21 24" version="1.1" xmlns="http://www.w3.org/2000/svg" xmlns:xlink="http://www.w3.org/1999/xlink">
    <!-- Generator: Sketch 61 (89581) - https://sketch.com -->
    <title>61已认证</title>
    <desc>Created with Sketch.</desc>
    <g id="页面-1" stroke="none" stroke-width="1" fill="none" fill-rule="evenodd">
        <g id="画板备份-76" transform="translate(-389.000000, -254.000000)" fill-rule="nonzero">
            <g id="编组-15" transform="translate(334.000000, 182.000000)">
                <g id="61已认证" transform="translate(55.000000, 72.000000)">
                    <path d="M20.0041059,5.2381217 L11.5282339,0.250069464 C10.9649225,-0.0833564879 10.0610041,-0.0833564879 9.49769269,0.250069464 L8.08286399,1.07696582 L1.00872047,5.2381217 C0.445409037,5.57154765 0,6.37176994 0,7.0252848 L0,16.9880522 C0,17.6415671 0.458509302,18.4551264 1.00872047,18.7752153 L3.4453699,20.2022784 L9.48459243,23.7499305 C10.0479039,24.0833565 10.9518222,24.0833565 11.5151336,23.7499305 L19.9910056,18.7618783 C20.554317,18.4284523 20.9997261,17.6282301 20.9997261,16.9747152 L20.9997261,7.0252848 C21.0128263,6.37176994 20.554317,5.57154765 20.0041059,5.2381217 L20.0041059,5.2381217 Z" id="路径" fill="#FFA73E"></path>
                    <path d="M10.5,8.7374477 C10.5,5.84100418 9.59663342,3.17573222 8.07793017,1 L1.00810474,5.24267782 C0.445137157,5.58263598 0,6.39853556 0,7.06485356 L0,17.2228033 C0,17.8891213 0.458229426,18.7186192 1.00810474,19.0449791 L3.44326683,20.5 C7.61970075,18.3786611 10.5,13.9048117 10.5,8.7374477 Z" id="路径" fill="#FFC06C"></path>
                    <path d="M14.7054307,9.30209835 C14.3207737,8.89930055 13.6836856,8.89930055 13.2870081,9.30209835 L9.18800703,13.5131663 L8.68314474,14.0258181 L6.20691538,11.4747653 C5.82225839,11.0719675 5.18517026,11.0719675 4.78849274,11.4747653 C4.40383575,11.8775631 4.40383575,12.5244808 4.78849274,12.9272786 L7.97393342,16.198485 C8.29848775,16.5402529 8.80335005,16.5890769 9.1759865,16.357163 C9.24810969,16.308339 9.32023287,16.259515 9.38033553,16.198485 L14.6813896,10.7424057 C15.1021082,10.3518139 15.1021082,9.70489616 14.7054307,9.30209835 L14.7054307,9.30209835 Z" id="路径" fill="#FFFFFF"></path>
                </g>
            </g>
        </g>
    </g>
</svg>