<?xml version="1.0" encoding="UTF-8"?>
<svg width="88px" height="88px" viewBox="0 0 88 88" version="1.1" xmlns="http://www.w3.org/2000/svg" xmlns:xlink="http://www.w3.org/1999/xlink">
    <!-- Generator: Sketch 61 (89581) - https://sketch.com -->
    <title>编组 21备份 2</title>
    <desc>Created with Sketch.</desc>
    <g id="页面-1" stroke="none" stroke-width="1" fill="none" fill-rule="evenodd">
        <g id="编组-21备份-2">
            <g id="编组-21备份">
                <circle id="椭圆形" fill="#052857" cx="44" cy="44" r="44"></circle>
                <path d="M49.4485614,31.7333033 C51.5303184,31.7333033 53.2177738,33.3423583 53.2177738,35.326988 C53.2177738,37.3116177 51.5303184,38.9206727 49.4485614,38.9206727 C47.3674528,38.9206727 45.6799974,37.3116177 45.6799974,35.326988 C45.6799974,33.3423583 47.3674528,31.7333033 49.4485614,31.7333033 L49.4485614,31.7333033 Z M59,44.9941799 L59,30.1647641 C59,27.8682273 56.8436629,26 54.1944486,26 L33.7822045,26 C31.1446637,26 29,27.8598669 29,30.1448278 L29,41.8899 C29,55.4800476 35.2485138,62.4307534 50.5679111,65.8823113 L51.0906202,66 L53.8565685,59.2068555 L53.3118096,59.0332165 C44.1177068,56.1064343 40.3186623,51.8915078 40.7064787,44.9941799 L59,44.9941799 Z" id="Fill-11" fill="#EE2A58"></path>
            </g>
        </g>
    </g>
</svg>