<?xml version="1.0" encoding="UTF-8"?>
<svg width="28px" height="28px" viewBox="0 0 28 28" version="1.1" xmlns="http://www.w3.org/2000/svg" xmlns:xlink="http://www.w3.org/1999/xlink">
    <!-- Generator: Sketch 61 (89581) - https://sketch.com -->
    <title>设 置</title>
    <desc>Created with Sketch.</desc>
    <g id="页面-1" stroke="none" stroke-width="1" fill="none" fill-rule="evenodd" opacity="0.498531">
        <g id="画板备份-52" transform="translate(-339.000000, -691.000000)" fill="#FFFFFF" fill-rule="nonzero">
            <g id="编组-16" transform="translate(339.000000, 691.000000)">
                <g id="设-置">
                    <path d="M25.098859,14.0000179 C25.098859,12.4239223 26.0884304,11.088452 27.4750336,10.5560686 C27.1441738,9.25669209 26.6328451,8.03251098 25.96511,6.90758779 C24.6055771,7.51215881 22.9633096,7.2655179 21.8504177,6.14961816 C20.7375258,5.03672624 20.4908848,3.39145089 21.0954559,2.03492587 C19.9675249,1.36719072 18.7433438,0.855862 17.4439672,0.52500224 C16.908576,1.91160542 15.5731057,2.90117688 14.0000179,2.90117688 C12.4239223,2.90117688 11.088452,1.91160542 10.5560686,0.52500224 C9.25669209,0.855862 8.03251098,1.36719072 6.90758779,2.03492587 C7.51215881,3.3944587 7.2655179,5.03672624 6.15262598,6.14961816 C5.03973406,7.26251008 3.3944587,7.50915099 2.03793369,6.90758779 C1.36719072,8.03251098 0.855862,9.25669209 0.52500224,10.5560686 C1.91160542,11.0914598 2.90117688,12.4269302 2.90117688,14.0000179 C2.90117688,15.5761135 1.91160542,16.9115838 0.52500224,17.4439672 C0.855862,18.7433438 1.36719072,19.9675249 2.03492587,21.092448 C3.3944587,20.487877 5.03672624,20.7345179 6.14961816,21.8504177 C7.26251008,22.9633096 7.50915099,24.608585 6.90457998,25.96511 C8.03251098,26.6328451 9.25669209,27.1441738 10.5560686,27.4750336 C11.0914598,26.0884304 12.4269302,25.098859 14.0000179,25.098859 C15.5761135,25.098859 16.9115838,26.0884304 17.4439672,27.4750336 C18.7433438,27.1441738 19.9675249,26.6328451 21.092448,25.96511 C20.487877,24.6055771 20.7345179,22.9633096 21.8474099,21.8504177 C22.9603018,20.7375258 24.6055771,20.4908848 25.9621022,21.092448 C26.6328451,19.9675249 27.1441738,18.7433438 27.4750336,17.4439672 C26.0884304,16.9115838 25.098859,15.5761135 25.098859,14.0000179 Z M14.0000179,17.6996316 C11.9577109,17.6996316 10.3004042,16.042325 10.3004042,14.0000179 C10.3004042,11.9577109 11.9577109,10.3004042 14.0000179,10.3004042 C16.042325,10.3004042 17.6996316,11.9577109 17.6996316,14.0000179 C17.6996316,16.042325 16.042325,17.6996316 14.0000179,17.6996316 Z" id="形状"></path>
                </g>
            </g>
        </g>
    </g>
</svg>