<?xml version="1.0" encoding="UTF-8"?>
<svg width="24px" height="23px" viewBox="0 0 24 23" version="1.1" xmlns="http://www.w3.org/2000/svg" xmlns:xlink="http://www.w3.org/1999/xlink">
    <!-- Generator: Sketch 61 (89581) - https://sketch.com -->
    <title>shuxie</title>
    <desc>Created with Sketch.</desc>
    <g id="页面-1" stroke="none" stroke-width="1" fill="none" fill-rule="evenodd">
        <path d="M1.05965187,17.1568583 C-0.740339357,14.0112975 0.0100148184,9.36817835 1.95933961,6.37303445 L1.95933961,6.37303444 C2.18081596,5.96219348 2.68960116,5.81076028 3.09574223,6.03479847 C3.11735309,6.04671963 3.13843392,6.05959864 3.15892354,6.07339793 L3.15892353,6.07339792 C3.34380348,6.24367914 3.49626896,6.44679036 3.60876875,6.67266984 C3.60876875,6.82248823 3.75871698,6.97230716 3.75871698,7.12212583 L3.75871666,7.12212688 C3.94424963,6.49761791 4.195607,5.89508961 4.5084551,5.32493126 C5.55809214,3.52773292 7.20813676,1.87973856 9.15808809,1.28107585 L9.15808811,1.28107585 C9.61269182,1.0950391 10.1325561,1.28981964 10.3576718,1.73053183 L10.3576718,1.73053189 C10.4321023,1.97349377 10.4321023,2.23355445 10.3576717,2.47651633 L10.3576717,2.47651642 C10.0706604,2.82497506 9.86557792,3.23478336 9.75787984,3.67506299 L9.75788099,3.67506198 C11.186129,2.41985909 12.8075578,1.40920258 14.5580736,0.683032415 C18.1574349,-0.664709945 22.3572254,-0.215876826 23.8566915,3.82859326 L23.8566915,3.82859323 C24.0391155,4.28540615 23.8209155,4.80532261 23.3693292,4.98985792 C23.3327201,5.00481771 23.2951593,5.01727363 23.2568999,5.02714143 L23.1075663,5.02714143 C19.9580476,5.77312587 18.9078029,7.87307041 17.8581523,9.8200765 C16.3586701,12.5161841 15.0085105,14.9126707 9.90906204,14.9126707 L9.9090623,14.9126709 C10.3435599,15.1083033 10.7965378,15.2588921 11.2610528,15.3621268 L11.2610529,15.3621268 C11.7619047,15.4303256 12.1132718,15.896331 12.0458535,16.4029788 C12.0387346,16.4564773 12.027003,16.5092432 12.0107929,16.5606734 L12.0107929,16.5606734 C11.8982832,16.7865455 11.7458185,16.9896567 11.5609477,17.159948 C9.30926676,18.5070702 5.10948708,19.4053593 2.55974933,18.3572516 L2.55974939,18.3572515 C1.9336427,19.3863481 1.71913234,20.6182645 1.95995756,21.8018432 L4.50968991,21.8018432 L4.5096899,21.8018432 C4.83670275,21.7911844 5.11034322,22.0507084 5.12087835,22.3815057 C5.1314152,22.7123028 4.8748601,22.9891098 4.54784698,22.9997669 C4.53513118,23.0000777 4.5224055,23.0000777 4.50968963,22.9997669 L1.20774777,22.9997669 L1.20774783,22.9997669 C0.740418787,22.9944555 0.324814746,22.6979386 0.163028615,22.2544053 L0.163028674,22.2544056 C-0.229587677,20.5024279 0.0937201946,18.6643143 1.05964311,17.1568393 L1.05965187,17.1568583 Z M7.80855896,22.8487163 L23.4074566,22.8487163 L23.4074566,22.8487163 C23.7346396,22.848787 24,22.5805403 24,22.24957 C24,21.9186008 23.7348919,21.650238 23.4077078,21.6501697 C23.4076235,21.6501697 23.4075391,21.6501697 23.4074548,21.6501697 L7.80915125,21.6501697 L7.80915123,21.6501697 C7.48196823,21.6500991 7.21660785,21.9183457 7.21660785,22.249316 C7.21660785,22.5802851 7.48171599,22.848648 7.80890007,22.8487163 C7.80898439,22.8487163 7.80906872,22.8487163 7.80915304,22.8487163 L7.80855896,22.8487163 Z" id="shuxie" fill="#007AFF" fill-rule="nonzero"></path>
    </g>
</svg>