<?xml version="1.0" encoding="UTF-8"?>
<svg width="30px" height="30px" viewBox="0 0 30 30" version="1.1" xmlns="http://www.w3.org/2000/svg" xmlns:xlink="http://www.w3.org/1999/xlink">
    <!-- Generator: Sketch 61 (89581) - https://sketch.com -->
    <title>编组 6</title>
    <desc>Created with Sketch.</desc>
    <g id="页面-1" stroke="none" stroke-width="1" fill="none" fill-rule="evenodd">
        <g id="画板备份-52" transform="translate(-317.000000, -461.000000)">
            <g id="编组备份" transform="translate(262.000000, 98.000000)">
                <g id="编组-12" transform="translate(23.000000, 253.000000)">
                    <g id="编组-7" transform="translate(32.000000, 110.000000)">
                        <g id="编组-6">
                            <g id="编组备份-2" fill="#386096">
                                <rect id="矩形" x="0" y="0" width="30" height="30" rx="9"></rect>
                            </g>
                            <g id="编组-5" transform="translate(7.000000, 5.000000)" fill="#FFFFFF" fill-rule="nonzero">
                                <g id="编组-4" transform="translate(0.000000, 2.467742)">
                                    <path d="M3.54790783,15.0702447 C3.54790783,15.7254727 3.06846083,16.1934928 2.39723502,16.1934928 L1.15067281,16.1934928 C0.479447005,16.2870968 1.15824196e-12,15.7254727 1.15824196e-12,15.0702447 L1.15824196e-12,14.0406007 L3.54790783,14.0406007 L3.54790783,15.0702447 Z" id="路径"></path>
                                    <polygon id="路径" points="1.15824196e-12 3.55695217 3.54790783 3.55695217 3.54790783 12.9173526 1.15824196e-12 12.9173526"></polygon>
                                    <path d="M3.54790783,2.34010011 L1.15824196e-12,2.34010011 L1.15824196e-12,1.12324805 C1.15824196e-12,0.468020022 0.479447005,-2.99545335e-14 1.15067281,-2.99545335e-14 L2.39723502,-2.99545335e-14 C3.06846083,-2.99545335e-14 3.54790783,0.561624027 3.54790783,1.12324805 L3.54790783,2.34010011 Z" id="路径"></path>
                                </g>
                                <path d="M16.7806452,17.6315907 C16.7806452,18.2868187 16.2053088,18.7548387 15.6299724,18.7548387 L11.9861751,18.7548387 C11.3149493,18.7548387 10.8355023,18.1932147 10.8355023,17.6315907 L10.8355023,3.59098999 C10.8355023,2.93576196 11.4108387,2.46774194 11.9861751,2.46774194 L15.6299724,2.46774194 C16.3011982,2.46774194 16.7806452,3.02936596 16.7806452,3.59098999 L16.7806452,17.6315907 Z" id="路径"></path>
                                <path d="M9.87096774,17.614207 C9.87096774,18.2735624 9.27870968,18.7445305 8.68645161,18.7445305 L6.02129032,18.7445305 C5.42903226,18.8387241 4.93548387,18.2735624 4.93548387,17.614207 L4.93548387,16.5780772 L9.87096774,16.5780772 L9.87096774,17.614207 Z M9.87096774,15.3535602 L4.93548387,15.3535602 L4.93548387,3.57935758 L9.87096774,3.57935758 L9.87096774,15.3535602 Z M9.87096774,2.44903413 L4.93548387,2.44903413 L4.93548387,1.13032345 C4.93548387,0.565161723 5.42903226,1.1689574e-14 6.02129032,1.1689574e-14 L8.58774194,1.1689574e-14 C9.27870968,1.1689574e-14 9.87096774,0.565161723 9.87096774,1.13032345 L9.87096774,2.44903413 Z" id="形状"></path>
                            </g>
                        </g>
                    </g>
                </g>
            </g>
        </g>
    </g>
</svg>