<?xml version="1.0" encoding="UTF-8"?>
<svg width="30px" height="30px" viewBox="0 0 30 30" version="1.1" xmlns="http://www.w3.org/2000/svg" xmlns:xlink="http://www.w3.org/1999/xlink">
    <!-- Generator: Sketch 61 (89581) - https://sketch.com -->
    <title>编组</title>
    <desc>Created with Sketch.</desc>
    <g id="页面-1" stroke="none" stroke-width="1" fill="none" fill-rule="evenodd">
        <g id="画板备份-52" transform="translate(-317.000000, -351.000000)">
            <g id="编组备份" transform="translate(262.000000, 98.000000)">
                <g id="编组-12" transform="translate(23.000000, 253.000000)">
                    <g id="编组-11">
                        <g id="编组-10" transform="translate(32.000000, 0.000000)">
                            <g id="编组">
                                <rect id="矩形" fill="#386096" x="0" y="0" width="30" height="30" rx="9"></rect>
                                <g id="课表管理备份" transform="translate(8.000000, 8.000000)" fill="#FFFFFF" fill-rule="nonzero">
                                    <path d="M10.0767837,0.782182981 L10.0767837,4.02943964 C10.0767837,4.18149656 10.1042658,4.29508209 10.1867123,4.40958409 C10.3516052,4.63858665 10.5989452,4.63858665 10.7638381,4.40958409 L11.2585167,3.72532579 C11.3684453,3.57326887 11.5333381,3.57326887 11.6432667,3.72532579 L12.1379454,4.40958409 C12.1929096,4.48561284 12.3028382,4.56164101 12.4127668,4.56164101 C12.632624,4.56164101 12.8249997,4.29599856 12.8249997,3.99188328 L12.8249997,0.0182296521 L12.8249993,0.0182296788 C13.1669004,-0.00528016837 13.5100144,-0.00528016837 13.8519155,0.0182296254 C14.3117833,0.0493738937 14.6571429,0.447837293 14.6571429,0.936986401 L14.6571429,12.0188684 C14.6571429,12.6921348 14.1395626,13.2435733 13.5065574,13.2435733 L13.4781592,13.2435733 C12.7306442,13.2124291 11.983135,13.3351742 11.2063085,13.5797491 C10.4010811,13.8252394 9.96961118,14.0084417 9.19370544,14.5287348 C9.16439111,14.559879 9.13599301,14.559879 9.07828043,14.5901074 L9.07828046,14.5901074 C8.79782381,14.7372426 8.45118402,14.6291801 8.30403879,14.3487426 C8.30347833,14.3476745 8.30292125,14.3466046 8.30236754,14.3455329 C8.24465539,14.2539319 8.24465539,14.1623305 8.24465539,14.0707301 L8.24465539,2.2835155 L8.24465537,2.28351496 C8.23824538,2.07756287 8.33562005,1.88214007 8.5039045,1.76322187 L8.59001517,1.67162099 C9.07919751,1.32353698 9.57937242,1.02491905 10.0768049,0.781260239 L10.0767837,0.782182981 Z M5.57613032,14.5653819 C5.185884,14.320808 4.96236216,14.1678332 4.87991644,14.1073767 C4.12599012,13.5870836 4.15438808,13.6786841 3.42885685,13.4652542 C2.7051601,13.2206804 1.95123235,13.1290785 1.1707397,13.1290785 C0.556971536,13.1290785 0.0558801006,12.6097019 0.0274821458,11.9373504 L0,11.9062062 L0,0.935158944 C0,0.446926299 0.334365511,0.0493776436 0.780492655,0.0191501244 L0.780492432,0.0191501413 C1.67686106,-0.0489696761 2.57774071,0.06507409 3.42884875,0.354409401 C4.29362018,0.62921219 5.12999078,1.08813235 5.93888139,1.66888334 C5.96636354,1.69911157 6.02132783,1.73025599 6.07812431,1.76048422 L6.07812433,1.76048423 C6.24237707,1.88158591 6.33629797,2.07592642 6.3291276,2.27986086 L6.41249027,14.0459968 C6.41249027,14.3821725 6.16148701,14.6570627 5.85460293,14.6570627 L5.85460291,14.6570627 C5.75406141,14.6589733 5.65583871,14.6266653 5.57611679,14.5653744 L5.57613032,14.5653819 Z M1.83213995,3.66487361 L1.83213993,3.66487361 C1.3262081,3.66481038 0.916017325,4.07487041 0.915954314,4.58076788 C0.915891069,5.08666534 1.32597897,5.49682825 1.8319108,5.49689126 C1.83198716,5.49689126 1.83206351,5.49689126 1.83213987,5.49689126 L4.58035446,5.49689126 L4.58035451,5.49689126 C5.08628634,5.49695448 5.49647711,5.08689446 5.49654012,4.58099699 C5.49660335,4.07509953 5.08651547,3.66493662 4.58058364,3.66487361 C4.58050728,3.66487361 4.58043092,3.66487361 4.58035456,3.66487361 L1.83213998,3.66487361 L1.83213995,3.66487361 Z M2.748211,7.32890602 L2.74821098,7.32890602 C2.24227915,7.32884279 1.83208838,7.73890283 1.83202536,8.24480029 C1.83196212,8.75069776 2.24205002,9.16086066 2.74798185,9.16092368 C2.74805821,9.16092368 2.74813456,9.16092368 2.74821092,9.16092368 L4.58035875,9.16092368 L4.5803588,9.16092368 C5.08629064,9.16098689 5.49648141,8.75092687 5.49654442,8.24502941 C5.49660765,7.73913194 5.08651977,7.32896904 4.58058793,7.32890602 C4.58051158,7.32890602 4.58043522,7.32890602 4.58035886,7.32890602 L2.74821103,7.32890602 L2.748211,7.32890602 Z" id="形状"></path>
                                </g>
                            </g>
                        </g>
                    </g>
                </g>
            </g>
        </g>
    </g>
</svg>