<?xml version="1.0" encoding="UTF-8"?>
<svg width="28px" height="28px" viewBox="0 0 28 28" version="1.1" xmlns="http://www.w3.org/2000/svg" xmlns:xlink="http://www.w3.org/1999/xlink">
    <!-- Generator: Sketch 61 (89581) - https://sketch.com -->
    <title>退出</title>
    <desc>Created with Sketch.</desc>
    <g id="页面-1" stroke="none" stroke-width="1" fill="none" fill-rule="evenodd" opacity="0.503203">
        <g id="画板备份-52" transform="translate(-339.000000, -749.000000)" fill="#FFFFFF" fill-rule="nonzero">
            <g id="编组-17" transform="translate(339.000000, 749.000000)">
                <g id="退出">
                    <path d="M6.31116796,3.07493841 C5.41312433,3.7146708 4.61121051,4.43850172 3.91441986,5.24943899 C3.21462139,6.06037626 2.61393045,6.93438743 2.11535487,7.87147251 L2.11535508,7.87147212 C1.61449055,8.81491873 1.23215503,9.81665681 0.977047112,10.8539022 C0.718735874,11.902096 0.586602517,12.9683366 0.586602517,14.0465785 C0.586602517,15.9057096 0.941013476,17.6477163 1.64983539,19.2786143 C2.35865731,20.9064744 3.31977484,22.3271261 4.52714226,23.5345236 C5.73754757,24.7449289 7.15516133,25.7030085 8.78305151,26.4118304 C10.4109417,27.1206523 12.1558961,27.4750332 14.0150271,27.4750332 C15.8531336,27.4750332 17.5861469,27.1206223 19.2170148,26.4118003 C20.844905,25.7029784 22.2685344,24.741891 23.4879331,23.5344935 C24.7073318,22.3240882 25.6654415,20.9064744 26.3652399,19.2785842 C27.0650384,17.650694 27.4134337,15.9057096 27.4134337,14.0465484 C27.4134337,12.9863234 27.2872859,11.947123 27.0379981,10.9289472 C26.7887104,9.91077137 26.4342994,8.94066047 25.9747653,8.02159222 C25.5152311,7.10252396 24.9445883,6.24355187 24.2657844,5.44461578 L24.2657842,5.44461559 C23.5862434,4.64446134 22.8218972,3.9203928 21.9861605,3.28512401 C21.547651,2.96674669 21.0731078,2.84661452 20.5625311,2.92469742 C20.0519543,3.00578814 19.6374773,3.25507593 19.3190999,3.67556861 C19.0007226,4.09606128 18.8805904,4.56458878 18.9586733,5.084189 C19.0397641,5.60378921 19.2890518,6.02428189 19.7095445,6.34262913 C20.9679847,7.26169739 21.93211,8.39098191 22.6018905,9.73054284 C23.2716709,11.0700737 23.6050272,12.5087422 23.6050272,14.0465182 C23.6050272,15.3650244 23.3557394,16.6084555 22.854156,17.7798194 C22.3555804,18.9481754 21.6707909,19.969329 20.7997876,20.8373546 C19.9287842,21.7053501 18.9106084,22.3961552 17.7422524,22.906732 C16.5738963,23.4173088 15.3304652,23.6696044 14.0089512,23.6696044 C12.690445,23.6696044 11.4470138,23.414301 10.27565,22.906732 C9.10428609,22.399133 8.09513375,21.7053501 7.22413039,20.8343468 C6.35613485,19.9663512 5.66532975,18.9451676 5.15475298,17.7768116 C4.64417621,16.6084555 4.38887279,15.3620166 4.38887279,14.0435104 C4.38887279,12.4847097 4.74929938,11.0100076 5.46711467,9.62241185 C6.18793778,8.2348161 7.1971202,7.0904925 8.49460179,6.18947114 C8.93311128,5.88911064 9.20041589,5.48064922 9.28752224,4.96104901 C9.37763641,4.44144879 9.27251324,3.96089003 8.97215273,3.52238054 C8.67179223,3.10188786 8.26333082,2.84661452 7.7437306,2.75950817 C7.23023625,2.66948423 6.74967749,2.7746074 6.311168,3.07493783 L6.31116796,3.07493841 Z M14.1261657,14.8785408 C14.6157179,14.8785408 15.0362105,14.7043281 15.3846059,14.3559328 C15.7330012,14.0075375 15.9072139,13.5870448 15.9072139,13.0944848 L15.9072139,2.33609849 C15.9072139,1.84654636 15.7330012,1.42003805 15.3846059,1.06261927 C15.0362105,0.705200497 14.6157179,0.52500224 14.1261657,0.52500224 C13.615589,0.52500224 13.1860728,0.705200497 12.8376775,1.06261927 C12.4892822,1.42003805 12.3150695,1.84651628 12.3150695,2.33609849 L12.3150695,13.0944848 C12.3150695,13.584037 12.4892822,14.0045296 12.8376775,14.3559328 C13.1860728,14.7043281 13.615589,14.8785408 14.1261657,14.8785408 Z" id="形状"></path>
                </g>
            </g>
        </g>
    </g>
</svg>