<?xml version="1.0" encoding="UTF-8"?>
<svg width="18px" height="29px" viewBox="0 0 18 29" version="1.1" xmlns="http://www.w3.org/2000/svg" xmlns:xlink="http://www.w3.org/1999/xlink">
    <!-- Generator: Sketch 61 (89581) - https://sketch.com -->
    <title>说话 (1)</title>
    <desc>Created with Sketch.</desc>
    <g id="页面-1" stroke="none" stroke-width="1" fill="none" fill-rule="evenodd">
        <g id="画板备份-92" transform="translate(-50.000000, -949.000000)" fill="#6F7484" fill-rule="nonzero">
            <g id="说话-(1)" transform="translate(50.000000, 949.000000)">
                <path d="M9.00001646,0 L9.00001626,0 C11.4666052,0 13.4661811,1.99956477 13.4661811,4.4661648 L13.4661811,14.8871976 L13.4661811,14.8871976 C13.4661811,17.3537865 11.4666135,19.3533624 9.00001626,19.3533624 C6.53342729,19.3533624 4.53385147,17.3537948 4.53385147,14.8871976 L4.53385147,4.4661648 L4.53385147,4.46616547 C4.53385147,1.99957649 6.53341624,0 9.00001626,0 L9.00001646,0 Z M16.8157772,9.67665399 L16.8157772,9.67665399 C16.1991507,9.67665399 15.6992802,10.1765655 15.6992664,10.793192 L15.6992664,14.8871948 L15.6992664,14.8871947 C15.6992664,18.5870754 12.6998999,21.5864419 9.00001924,21.5864419 C5.30013854,21.5864419 2.30077205,18.5870754 2.30077205,14.8871947 L2.30077205,10.7932195 L2.30077205,10.7932196 C2.30077205,10.1765709 1.80087947,9.67665399 1.18423361,9.67665399 C0.567584987,9.67665399 0.0676951752,10.1765737 0.0676951752,10.7932196 L0.0676951752,14.8871947 L0.0676951752,14.8871981 C0.0698919518,19.3870074 3.41894852,23.1826288 7.88348357,23.7450842 L7.88348357,26.0526045 L4.90602196,26.0526045 L4.90602191,26.0526045 C4.28937328,26.0526046 3.78948347,26.5524971 3.78948347,27.169143 C3.7894835,27.7857916 4.28937604,28.2856814 4.90602191,28.2856814 L13.0939999,28.2856814 L13.0939999,28.2856814 C13.7106485,28.2856814 14.2105383,27.7857888 14.2105383,27.169143 C14.2105383,26.5524944 13.7106457,26.0526045 13.0939999,26.0526045 L10.1165106,26.0526045 L10.1165106,23.7450538 L10.1165112,23.7450538 C14.5810187,23.182579 17.9300898,19.3869494 17.932272,14.8871676 L17.932272,10.7931924 L17.932272,10.7931924 C17.932272,10.1765549 17.432396,9.67665399 16.8157612,9.67665399 L16.8157772,9.67665399 Z" id="形状"></path>
            </g>
        </g>
    </g>
</svg>