<?xml version="1.0" encoding="UTF-8"?>
<svg width="31px" height="31px" viewBox="0 0 31 31" version="1.1" xmlns="http://www.w3.org/2000/svg" xmlns:xlink="http://www.w3.org/1999/xlink">
    <!-- Generator: Sketch 61 (89581) - https://sketch.com -->
    <title>编组 11</title>
    <desc>Created with Sketch.</desc>
    <g id="页面-1" stroke="none" stroke-width="1" fill="none" fill-rule="evenodd" opacity="0.4">
        <g id="画板备份-92" transform="translate(-1743.000000, -947.000000)" fill="#8A8F9D" fill-rule="nonzero">
            <g id="编组-12" transform="translate(1599.000000, 946.000000)">
                <g id="编组-11" transform="translate(144.000000, 1.000000)">
                    <path d="M28.6512046,-2.43319576e-13 L2.04651351,-2.43319576e-13 C0.920930305,-2.43319576e-13 2.05156822e-12,0.920930305 2.05156822e-12,2.04651351 L2.05156822e-12,28.6512046 C2.05156822e-12,29.7767878 0.920930305,30.6977181 2.04651351,30.6977181 L28.6512046,30.6977181 C29.7767878,30.6977181 30.6977181,29.7767878 30.6977181,28.6512046 L30.6977181,2.04651351 C30.6977181,0.920930305 29.7767878,-2.43319576e-13 28.6512046,-2.43319576e-13 Z M4.09304251,3.06975632 L26.6047066,3.06975632 C27.1674967,3.06975632 27.6279649,3.53023697 27.6279649,4.09303012 L27.6279649,16.4744299 C26.9116844,15.7581494 25.7861012,15.3488467 24.0465624,15.3488467 C18.2651683,15.3488467 17.2418883,23.1767698 12.2791058,19.9534982 C9.10700913,17.8558222 5.3209692,20.3628009 3.06980279,22.4604769 L3.06980279,4.09301463 C3.06980279,3.53022457 3.53026794,3.06975632 4.09306109,3.06975632 L4.09304251,3.06975632 Z" id="形状"></path>
                    <path d="M17.9070281,9.20929995 L17.9070281,9.20930041 C17.9070281,10.904687 19.2814133,12.2790722 20.9767999,12.2790722 C22.6721864,12.2790722 24.0465717,10.904687 24.0465717,9.20930041 L24.0465717,9.20930041 C24.0465717,7.51391385 22.6721895,6.1395286 20.9767999,6.1395286 C19.2814133,6.1395286 17.9070281,7.51391075 17.9070281,9.20930041 L17.9070281,9.20929995 Z" id="路径"></path>
                </g>
            </g>
        </g>
    </g>
</svg>