<?xml version="1.0" encoding="UTF-8"?>
<svg width="34px" height="34px" viewBox="0 0 34 34" version="1.1" xmlns="http://www.w3.org/2000/svg" xmlns:xlink="http://www.w3.org/1999/xlink">
    <!-- Generator: Sketch 61 (89581) - https://sketch.com -->
    <title>笑脸</title>
    <desc>Created with Sketch.</desc>
    <g id="页面-1" stroke="none" stroke-width="1" fill="none" fill-rule="evenodd" opacity="0.4">
        <g id="画板备份-92" transform="translate(-1790.000000, -946.000000)" fill="#8A8F9D" fill-rule="nonzero">
            <g id="编组-12" transform="translate(1599.000000, 946.000000)">
                <g id="笑脸" transform="translate(191.000000, 0.000000)">
                    <path d="M17.0000198,0 C7.63300888,0 0,7.63300888 0,17.0000198 C0,26.3670307 7.63300888,34.0000396 17.0000198,34.0000396 C26.3670307,34.0000396 34.0000396,26.3670307 34.0000396,17.0000198 C34.0000396,7.63300888 26.3670307,0 17.0000198,0 Z M17.0000198,30.4640354 C9.57101114,30.4640354 3.53600411,24.4290284 3.53600411,17.0000198 C3.53600411,9.57101114 9.57101114,3.53600411 17.0000198,3.53600411 C24.4290284,3.53600411 30.4640354,9.57101114 30.4640354,17.0000198 C30.4640354,24.4290284 24.4290284,30.4640354 17.0000198,30.4640354 Z" id="形状"></path>
                    <path d="M11.5600135,15.1980177 C13.1410153,15.1980177 14.4160168,13.9230162 14.4160168,12.3420144 C14.4160168,10.7610125 13.1410153,9.48601104 11.5600135,9.48601104 C9.97901161,9.48601104 8.70401013,10.7610125 8.70401013,12.3420144 C8.70401013,13.9230162 9.97901161,15.1980177 11.5600135,15.1980177 Z M22.4400261,15.1980177 C24.021028,15.1980177 25.2960294,13.9230162 25.2960294,12.3420144 C25.2960294,10.7610125 24.021028,9.48601104 22.4400261,9.48601104 C20.8590243,9.48601104 19.5840228,10.7610125 19.5840228,12.3420144 C19.5840228,13.9230162 20.8590243,15.1980177 22.4400261,15.1980177 Z M27.8460324,18.1220211 C27.6420322,17.6970206 27.3020318,17.3740202 26.8430312,17.20402 C26.656031,17.1360199 26.4520308,17.1020199 26.2650306,17.1020199 L26.2480305,17.1020199 C25.5000297,17.1020199 24.8370289,17.5780205 24.5820286,18.2750213 C23.8680278,20.2980236 22.4060261,21.9130255 20.4680238,22.8310266 C18.5300216,23.7490276 16.354019,23.8510278 14.3310167,23.1370269 C12.053014,22.321026 10.285012,20.5530239 9.46901102,18.2750213 C9.21401072,17.5610204 8.53400993,17.0850199 7.76900904,17.1020199 C7.29300849,17.1020199 6.86800799,17.2720201 6.5280076,17.6120205 C6.1880072,17.9350209 6.00100698,18.3770214 6.00100698,18.8530219 C6.00100698,19.0740222 6.03500702,19.2780224 6.1030071,19.4820227 C7.14000831,22.3890261 9.23101074,24.7180288 12.019014,26.0610303 C13.6000158,26.8090312 15.2830178,27.1830316 16.9830198,27.1830316 C18.2920213,27.1830316 19.5840228,26.9620314 20.8590243,26.5200309 C24.1570281,25.3470295 26.7240311,22.7800265 27.8800324,19.4990227 C28.0500326,19.0400222 28.0330326,18.5640216 27.8460324,18.1220211 Z" id="形状"></path>
                </g>
            </g>
        </g>
    </g>
</svg>