<?xml version="1.0" standalone="no"?><!DOCTYPE svg PUBLIC "-//W3C//DTD SVG 1.1//EN" "http://www.w3.org/Graphics/SVG/1.1/DTD/svg11.dtd"><svg t="1597909575293" class="icon" viewBox="0 0 1024 1024" version="1.1" xmlns="http://www.w3.org/2000/svg" p-id="14248" xmlns:xlink="http://www.w3.org/1999/xlink" width="48" height="48"><defs><style type="text/css"></style></defs><path d="M919.5 494.9c-0.6 1.8-1.3 3.6-2.1 5.4-0.2 0.6-0.5 1.2-0.8 1.8-0.8 1.8-1.7 3.5-2.7 5.2-0.6 1.1-1.3 2.3-2 3.4-0.3 0.6-0.7 1.1-1.1 1.7-0.7 1.1-1.5 2.2-2.3 3.3-2.4 3.2-5 6.3-7.9 9.2L629.3 796.2 496.8 928.7H341.5L95.7 682.9c-31-31-31-81.9 0-112.9l153.7-153.7L520.8 145c27.6-27.6 70.8-30.7 101.9-9.2 3.9 2.7 7.6 5.7 11 9.2l47.1 47.1 57.8 57.8 115 115 39.5 39.5 7.6 7.6c2.9 2.9 5.6 6 7.9 9.2 0.4 0.6 0.9 1.2 1.3 1.8 0.7 1 1.4 2.1 2.1 3.1 0.7 1.1 1.4 2.3 2 3.4 0.6 1.2 1.2 2.3 1.8 3.5 9.4 19.3 10.7 41.7 3.7 61.9z" fill="#FDF17F" p-id="14249"></path><path d="M919.5 494.9c-0.6 1.8-1.3 3.6-2.1 5.4-0.2 0.6-0.5 1.2-0.8 1.8-0.8 1.8-1.7 3.5-2.7 5.2-0.6 1.1-1.3 2.3-2 3.4-0.3 0.6-0.7 1.1-1.1 1.7-0.7 1.1-1.5 2.2-2.3 3.3-2.4 3.2-5 6.3-7.9 9.2L629.3 796.2 496.8 928.7H341.5l-36.1-36.1c31 31 81.9 31 112.9 0l425-425c27.6-27.6 30.7-70.7 9.3-101.8-2.7-3.9-5.8-7.6-9.3-11.1l10.2 10.2 39.5 39.5 7.6 7.6c2.9 2.9 5.5 6 7.9 9.2 0.4 0.6 0.9 1.2 1.3 1.8 0.7 1 1.4 2.1 2.1 3.1 0.7 1.1 1.4 2.3 2 3.4 0.6 1.2 1.2 2.3 1.8 3.5 9.5 19.3 10.8 41.7 3.8 61.9z" fill="#FAD672" p-id="14250"></path><path d="M928.3 521.5L641.5 808.3 239.7 406.5l286.8-286.8c31-31 81.9-31 112.9 0l288.9 288.9c31 31 31 81.9 0 112.9z" fill="#50E6CC" p-id="14251"></path><path d="M927.1 520.3L640.3 807.1 238.5 405.4l286.8-286.8c31-31 81.9-31 112.9 0l288.9 288.9c31 31 31 81.8 0 112.8z" fill="#50E6CC" p-id="14252"></path><path d="M295.782 462.682l343.226-343.226 57.204 57.204-343.226 343.226zM410.774 577.681L754 234.455l57.204 57.204-343.226 343.226zM525.768 692.68l343.227-343.226 57.204 57.204-343.226 343.226z" fill="#45DABD" p-id="14253"></path><path d="M927.1 520.3L640.3 807.1 583 749.8 869.8 463c31-31 31-81.9 0-112.9l57.3 57.3c31 31.1 31 81.9 0 112.9z" fill="#1FC1AD" p-id="14254"></path><path d="M935.4 401.5L646.5 112.6c-1.1-1.1-2.3-2.3-3.5-3.3l-0.1-0.1-0.1-0.1c-17-15.7-39.1-24.1-62.4-23.7-23.5 0.4-45.5 9.7-62 26.2l-287 286.7c-3.9 3.9-3.9 10.2 0 14.1l3.8 3.8L88.6 562.9c-35 35-35 92 0 127l245.8 245.8c1.9 1.9 4.4 2.9 7.1 2.9h155.3c2.7 0 5.2-1.1 7.1-2.9l125.5-125.5 0.3 0.3 4.8 4.8c2 2 4.5 2.9 7.1 2.9s5.1-1 7.1-2.9l286.8-286.8c34.9-35 34.9-91.9-0.1-127zM310 462.6l329-329 24.4 24.4 18.7 18.7-329.1 329-43-43.1z m-14.2-14.1l-39.3-39.3-2.7-2.7 279.7-279.7c12.6-12.6 29.5-19.8 47.5-20.3 15.7-0.4 30.9 4.3 43.3 13.5L295.8 448.5zM468 620.7l-43-43.1 329-329 43.1 43.1-8.4 8.4L468 620.7z m-57.2-57.2l-43.7-43.7 329.1-329.1 43.7 43.7-329.1 329.1zM583 735.7l-43-43.1 217.5-217.5L860.7 372l8.4-8.4 43.1 43.1-9.3 9.3-0.3 0.3L583 735.7z m334-305.6l0.3-0.3 8.6-8.6c21.2 27.3 19.3 66.9-5.8 92L640.3 793l-43.1-43.1L917 430.1z m-274.5 44.4l160.3-160.3 8.4-8.4 43.7 43.6-8.4 8.4-320.7 320.7-43.6-43.6 160.3-160.4zM492.7 918.7h-147L102.8 675.8c-27.2-27.2-27.2-71.5 0-98.8l146.6-146.6 154.2 154.2 0.1 0.1 57.2 57.2 0.3 0.3 57 57c0.2 0.2 0.3 0.4 0.5 0.5l57.2 57.2c0.2 0.2 0.4 0.4 0.6 0.5l38.7 38.7-122.5 122.6z" fill="#00435B" p-id="14255"></path></svg>