<?xml version="1.0" encoding="UTF-8"?>
<svg width="26px" height="20px" viewBox="0 0 26 20" version="1.1" xmlns="http://www.w3.org/2000/svg" xmlns:xlink="http://www.w3.org/1999/xlink">
    <!-- Generator: Sketch 61 (89581) - https://sketch.com -->
    <title>网络</title>
    <desc>Created with Sketch.</desc>
    <g id="页面-1" stroke="none" stroke-width="1" fill="none" fill-rule="evenodd">
        <g id="画板备份-92" transform="translate(-42.000000, -44.000000)" fill="#000000" fill-rule="nonzero">
            <g id="编组-6" transform="translate(42.000000, 44.000000)">
                <g id="编组-5">
                    <g id="网络">
                        <path d="M13.0142593,15.0894755 C11.6655077,15.0894755 10.5686314,16.1441018 10.5686314,17.4424783 C10.5686314,18.7424798 11.6638827,19.795481 13.0142593,19.795481 C14.3662609,19.795481 15.4598871,18.7424798 15.4598871,17.4424783 C15.4598871,16.1424768 14.3662609,15.0894755 13.0142593,15.0894755 L13.0142593,15.0894755 Z M13.0012593,9.66196923 L13.001259,9.66196923 C10.7981399,9.66595373 8.68266416,10.525315 7.10087716,12.058847 L7.10087721,12.058847 C6.64541457,12.5044657 6.63743429,13.234937 7.08305366,13.6903997 C7.08892974,13.6964055 7.09487125,13.702347 7.10087713,13.7082231 C7.56562767,14.1632237 8.31637855,14.1632237 8.78112909,13.7082231 L8.78112937,13.7082229 C9.90841603,12.6048034 11.4238141,11.9880212 13.0012593,11.9905959 C14.5856361,11.9905959 16.1050129,12.6080966 17.2213892,13.7082229 L17.221389,13.7082227 C17.4433965,13.9296439 17.7431086,14.0555923 18.05664,14.0592231 L18.05664,14.0592231 C18.5481295,14.0890254 19.0075378,13.8141551 19.2136414,13.3669723 L19.2136414,13.3669722 C19.4153229,12.9216075 19.314404,12.3974783 18.9617661,12.0588457 L18.9617659,12.0588455 C17.3650644,10.5107925 15.2251756,9.65028547 13.001259,9.66196771 L13.0012593,9.66196923 Z M13.0012593,4.98196378 L13.0012598,4.98196378 C9.53817764,4.98600348 6.21245892,6.33681165 3.727374,8.74871816 L3.72737404,8.74871812 C3.26877058,9.19497411 3.25875904,9.92850758 3.70501457,10.387111 C3.71236565,10.3946656 3.71981948,10.4021194 3.72737396,10.4094704 L3.72737408,10.4094706 C4.19861955,10.8681096 4.94938058,10.8681096 5.42062605,10.4094703 C9.60825592,6.30471555 16.3942638,6.30471555 20.5835187,10.4094703 L20.5835187,10.4094703 C20.8099068,10.6300739 21.1140538,10.7526656 21.4301446,10.7507207 L21.4301446,10.7507207 C21.7456743,10.7522392 22.0491586,10.6296781 22.2751456,10.4094703 L22.2751456,10.4094703 C22.7337491,9.96321426 22.7437606,9.22968079 22.297505,8.77107733 C22.2901539,8.76352282 22.2827001,8.75606901 22.2751456,8.74871794 L22.2751465,8.74871878 C19.7900717,6.33681226 16.4643428,4.98600151 13.0012607,4.98196378 L13.0012593,4.98196378 Z M25.650274,5.43858931 L25.6502741,5.43858945 C22.2692546,2.13427506 17.7271966,0.287688929 12.9996344,0.29543405 C8.25625389,0.29543405 3.7062486,2.14633562 0.352244696,5.43858945 L0.352244735,5.43858942 C-0.106358728,5.8848454 -0.116370263,6.61837887 0.329885268,7.07698234 C0.337236345,7.08453684 0.344690178,7.09199065 0.352244659,7.09934173 L0.352244613,7.09934168 C0.823286958,7.55692698 1.57282924,7.55692698 2.04387158,7.09934178 C8.09537862,1.16483487 17.90389,1.16483487 23.9553971,7.09934178 L23.955397,7.09934166 C24.4286153,7.56530587 25.1899744,7.55942539 25.6559411,7.08620715 C25.8706315,6.86817455 25.9941294,6.57649737 26.0012769,6.27059077 L26.0012769,6.27092241 C26.0012769,5.95729451 25.8741317,5.65706271 25.6488902,5.43881988 L25.650274,5.43858931 Z" id="形状"></path>
                    </g>
                </g>
            </g>
        </g>
    </g>
</svg>