<?xml version="1.0" encoding="UTF-8"?>
<svg width="33px" height="31px" viewBox="0 0 33 31" version="1.1" xmlns="http://www.w3.org/2000/svg" xmlns:xlink="http://www.w3.org/1999/xlink">
    <!-- Generator: Sketch 61 (89581) - https://sketch.com -->
    <title>画板</title>
    <desc>Created with Sketch.</desc>
    <g id="画板" stroke="none" stroke-width="1" fill="none" fill-rule="evenodd">
        <g id="多媒体备份" fill="#4186F4" fill-rule="nonzero">
            <path d="M26.5165388,-2.73736564e-06 L5.76081456,-2.73736564e-06 L5.7608147,-2.73736564e-06 C2.58009906,0.00210985677 0.00210515023,2.58007485 -8.72300144e-08,5.76081456 L-8.72300144e-08,25.0323632 L-8.72300144e-08,25.0319873 C0.00190232186,28.2127029 2.57969887,30.7908472 5.76042354,30.7931627 L26.5161478,30.7931627 L26.5161475,30.7931627 C29.6959911,30.7889483 32.2727521,28.2122158 32.2769623,25.0323481 L32.2769623,5.76079945 L32.2769623,5.76099225 C32.2728545,2.58126896 29.6964364,0.00450797763 26.5167191,-2.73736564e-06 L26.5165388,-2.73736564e-06 Z M27.2586357,10.0374234 L29.6494078,10.0374234 L29.6494078,11.8582367 L27.2586357,11.8582367 L27.2586356,11.8582367 C26.5340073,11.8582367 25.9465799,12.4456641 25.9465799,13.1702924 C25.9465799,13.8949208 26.5340073,14.4823482 27.2586356,14.4823482 L29.6494078,14.4823482 L29.6494078,16.3031614 L27.2586356,16.3031614 L27.2586357,16.3031614 C26.5329518,16.2639925 25.912915,16.8205224 25.8737439,17.5462092 C25.834575,18.2718931 26.3911049,18.8919299 27.1167917,18.931101 C27.1640384,18.9336511 27.2113883,18.9336511 27.2586354,18.931101 L29.6494078,18.931101 L29.6494078,20.7519142 L27.2586354,20.7519142 L27.2586353,20.7519142 C26.534007,20.7519143 25.9465796,21.3393417 25.9465796,22.06397 C25.9465796,22.7885983 26.534007,23.3760257 27.2586353,23.3760257 L29.6494078,23.3760257 L29.6494078,25.0285261 L29.6494078,25.0285284 C29.6494078,26.759383 28.24739,28.1631145 26.5165355,28.1652195 L5.76081119,28.1652195 L5.76081121,28.1652195 C4.02933717,28.1631118 2.62622514,26.7599995 2.62411994,25.0285284 L2.62411994,23.3798531 L5.0187174,23.3798531 L5.01871734,23.3798531 C5.74334566,23.3798531 6.33077307,22.7924257 6.33077307,22.0677974 C6.3307731,21.343169 5.74334566,20.7557416 5.01871734,20.7557416 L2.62411994,20.7557416 L2.62411994,18.9349284 L5.01871734,18.9349284 L5.01871739,18.9349284 C5.74440122,18.8957594 6.30093324,18.2757235 6.2617652,17.5500366 C6.22555077,16.8790948 5.68966219,16.3432038 5.01871739,16.3069888 L2.62411994,16.3069888 L2.62411994,14.4861756 L5.01871739,14.4861756 L5.01871734,14.4861756 C5.74334566,14.4861756 6.33077306,13.8987482 6.33077306,13.1741198 C6.3307731,12.4494915 5.74334566,11.8620641 5.01871734,11.8620641 L2.62411994,11.8620641 L2.62411994,10.0374258 L5.01871734,10.0374258 L5.01871728,10.0374258 C5.7433456,10.0374258 6.33077301,9.44999835 6.33077301,8.72537003 C6.33077304,8.0007417 5.7433456,7.4133143 5.01871728,7.4133143 L2.62411994,7.4133143 L2.62411994,5.76081386 L2.62411994,5.76088055 C2.62619088,4.02940651 4.02927382,2.62626441 5.76075086,2.62412934 L26.5164752,2.62412934 L26.516475,2.62412934 C28.2473295,2.62624006 29.6494078,4.02996885 29.6494078,5.76082041 L29.6494078,7.41332085 L27.2585748,7.41332085 L27.2585747,7.41332085 C26.5339464,7.41332088 25.946519,8.00074826 25.946519,8.72537658 C25.946519,9.4500049 26.5339464,10.0374323 27.2585747,10.0374323 L27.2586357,10.0374234 Z" id="形状"></path>
            <path d="M21.5972733,13.1435018 L14.5626629,8.55321778 L14.5626629,8.55321775 C13.8663258,8.07401142 12.9615335,8.02095939 12.2139667,8.41550923 L12.2139667,8.41550923 C11.3743662,8.90708394 10.8709284,9.8185551 10.9019109,10.7909811 L10.9019109,19.9715491 L10.901911,19.9715477 C10.874327,20.9551061 11.3883976,21.8745582 12.2407423,22.366145 L12.2407422,22.3661449 C12.5686682,22.547199 12.9372207,22.6419694 13.3118085,22.6415633 L13.3118084,22.6415633 C13.7706865,22.6415633 14.2197552,22.5087494 14.6047387,22.2590383 L21.5781538,17.6687543 L21.5781538,17.6687542 C22.345631,17.1594674 22.801135,16.2945859 22.7869292,15.3736122 L22.7869293,15.3736059 C22.799548,14.475291 22.3504004,13.6333239 21.5972764,13.1434964 L21.5972733,13.1435018 Z M20.1436834,15.3659642 L20.1436834,15.3659642 C20.1496617,15.3949863 20.1496617,15.4249225 20.1436834,15.4539448 L13.5260134,19.7994172 L13.5260134,11.0013879 L20.1398343,15.327735 L20.1398343,15.327735 C20.1436855,15.3400954 20.1449869,15.353109 20.1436595,15.3659873 L20.1436834,15.3659642 Z" id="形状"></path>
        </g>
    </g>
</svg>