<?xml version="1.0" encoding="UTF-8"?>
<svg width="32px" height="29px" viewBox="0 0 32 29" version="1.1" xmlns="http://www.w3.org/2000/svg" xmlns:xlink="http://www.w3.org/1999/xlink">
    <!-- Generator: Sketch 61 (89581) - https://sketch.com -->
    <title>课件</title>
    <desc>Created with Sketch.</desc>
    <g id="页面-1" stroke="none" stroke-width="1" fill="none" fill-rule="evenodd">
        <g id="画板备份-92" transform="translate(-1375.000000, -130.000000)" fill="#DA4A75" fill-rule="nonzero">
            <g id="课件" transform="translate(1375.000000, 130.000000)">
                <path d="M2.46153929,8.32579186 L0,8.32579186 L0,14.5701357 L0.0123076826,14.5701357 L0,25.8099548 C0,27.1837104 1.10769227,28.3076923 2.46153929,28.3076923 L24.6153846,28.3076923 L24.6153846,25.8099548 L2.46153929,25.8099548 L2.46153929,8.32579186 L2.46153929,8.32579186 L2.46153929,8.32579186 Z M29.2923236,2.91402005 L18.4615422,2.91402005 L15.7538482,0 L7.63076906,0 C6.14153696,0 4.93661541,1.31131328 4.93661541,2.91402005 L4.92307692,20.3981971 C4.92307692,22.0009124 6.14153879,23.3122172 7.6307709,23.3122172 L29.292306,23.3122172 C30.7815381,23.3122172 32,22.0009039 32,20.3981971 L32,5.8280685 C32,4.22535321 30.7815381,2.91404845 29.292306,2.91404845 L29.292306,2.91404845 L29.2923236,2.91402005 Z" id="形状"></path>
            </g>
        </g>
    </g>
</svg>