<?xml version="1.0" standalone="no"?><!DOCTYPE svg PUBLIC "-//W3C//DTD SVG 1.1//EN" "http://www.w3.org/Graphics/SVG/1.1/DTD/svg11.dtd"><svg t="1599620168997" class="icon" viewBox="0 0 1024 1024" version="1.1" xmlns="http://www.w3.org/2000/svg" p-id="3168" xmlns:xlink="http://www.w3.org/1999/xlink" width="48" height="48"><defs><style type="text/css"></style></defs><path d="M179.968 730.5728a15.36 15.36 0 0 1-15.36-15.36V308.7872a15.36 15.36 0 0 1 30.72 0v406.4256a15.36 15.36 0 0 1-15.36 15.36zM844.032 730.5728a15.36 15.36 0 0 1-15.36-15.36V308.7872a15.36 15.36 0 0 1 30.72 0v406.4256a15.36 15.36 0 0 1-15.36 15.36z" fill="#707070" p-id="3169"></path><path d="M409.6 730.5728H179.968a15.36 15.36 0 0 1 0-30.72H409.6a15.36 15.36 0 0 1 0 30.72zM844.032 730.5728H614.4a15.36 15.36 0 0 1 0-30.72h229.632a15.36 15.36 0 0 1 0 30.72zM844.032 324.1472H179.968a15.36 15.36 0 0 1 0-30.72h664.064a15.36 15.36 0 0 1 0 30.72zM508.416 730.5728a15.36 15.36 0 0 1-15.36-15.36V416.512a15.36 15.36 0 0 1 30.72 0v298.7008a15.36 15.36 0 0 1-15.36 15.36z" fill="#707070" p-id="3170"></path><path d="M638.5664 562.0224a15.36 15.36 0 0 1-10.8544-4.5056L497.5616 427.3664a15.36 15.36 0 0 1 21.7088-21.7088l130.1504 130.1504a15.36 15.36 0 0 1-10.8544 26.2144z" fill="#707070" p-id="3171"></path><path d="M378.2656 562.0224a15.36 15.36 0 0 1-10.8544-26.2144l130.1504-130.1504a15.36 15.36 0 1 1 21.7088 21.7088L389.12 557.5168a15.36 15.36 0 0 1-10.8544 4.5056z" fill="#707070" p-id="3172"></path></svg>