<?xml version="1.0" standalone="no"?><!DOCTYPE svg PUBLIC "-//W3C//DTD SVG 1.1//EN" "http://www.w3.org/Graphics/SVG/1.1/DTD/svg11.dtd"><svg t="1599617086115" class="icon" viewBox="0 0 1024 1024" version="1.1" xmlns="http://www.w3.org/2000/svg" p-id="2913" xmlns:xlink="http://www.w3.org/1999/xlink" width="48" height="48"><defs><style type="text/css"></style></defs><path d="M179.968 730.5728a15.36 15.36 0 0 1-15.36-15.36V308.7872a15.36 15.36 0 0 1 30.72 0v406.4256a15.36 15.36 0 0 1-15.36 15.36zM844.032 730.5728a15.36 15.36 0 0 1-15.36-15.36V308.7872a15.36 15.36 0 0 1 30.72 0v406.4256a15.36 15.36 0 0 1-15.36 15.36z" fill="#707070" p-id="2914"></path><path d="M409.6 730.5728H179.968a15.36 15.36 0 0 1 0-30.72H409.6a15.36 15.36 0 0 1 0 30.72zM844.032 730.5728H614.4a15.36 15.36 0 0 1 0-30.72h229.632a15.36 15.36 0 0 1 0 30.72zM844.032 324.1472H179.968a15.36 15.36 0 0 1 0-30.72h664.064a15.36 15.36 0 0 1 0 30.72zM402.8416 632.576a15.36 15.36 0 0 1-10.9056-4.5056 15.36 15.36 0 0 1 0-21.7088l211.2512-211.2512a15.36 15.36 0 1 1 21.7088 21.76L413.696 628.0704a15.36 15.36 0 0 1-10.8544 4.5056z" fill="#707070" p-id="2915"></path><path d="M614.0416 632.576a15.36 15.36 0 0 1-10.8544-4.5056L391.936 416.8704a15.36 15.36 0 0 1 21.76-21.76l211.2 211.2512a15.36 15.36 0 0 1-10.8544 26.2144z" fill="#707070" p-id="2916"></path></svg>