<?xml version="1.0" encoding="UTF-8"?>
<svg width="18px" height="20px" viewBox="0 0 18 20" version="1.1" xmlns="http://www.w3.org/2000/svg" xmlns:xlink="http://www.w3.org/1999/xlink">
    <!-- Generator: Sketch 61 (89581) - https://sketch.com -->
    <title>验证码</title>
    <desc>Created with Sketch.</desc>
    <g id="页面-1" stroke="none" stroke-width="1" fill="none" fill-rule="evenodd" opacity="0.6">
        <g id="画板备份-19" transform="translate(-963.000000, -510.000000)" fill="#000000" fill-rule="nonzero">
            <g id="编组-9" transform="translate(610.000000, 263.000000)">
                <g id="编组-5">
                    <g id="编组" transform="translate(266.000000, 0.000000)">
                        <g id="编组-2">
                            <g id="编组-7" transform="translate(72.000000, 247.000000)">
                                <g id="验证码" transform="translate(15.000000, 0.000000)">
                                    <path d="M18,4.53470208 C17.1983716,4.47891096 16.392302,4.32715912 15.6994819,4.10622629 C15.4752036,4.03927695 15.2509252,3.96340103 15.0266469,3.88306182 C14.5514434,3.7424682 13.9052554,3.46351261 13.1702443,3.06627985 C13.161362,3.06181656 13.1547002,3.05735327 13.1458179,3.05288998 C12.9726129,2.9591609 12.7971873,2.85873689 12.6173205,2.75384959 C12.3752776,2.61548761 12.1354552,2.46596742 11.8956329,2.30975229 C11.8867506,2.30305735 11.8778682,2.29859406 11.8689859,2.29189913 C11.6980015,2.18031689 11.5247964,2.06427137 11.3560326,1.9459942 C11.2450037,1.87011828 11.1339748,1.78754742 11.022946,1.70720821 C10.938564,1.64472216 10.8564027,1.58893104 10.7720207,1.52421335 C10.1680237,1.06672618 9.56624722,0.553447891 9.00222058,0 C8.43819393,0.553447891 7.83641747,1.06672618 7.22797927,1.52421335 C7.14581791,1.5866994 7.06143597,1.64472216 6.97705403,1.70720821 C6.86602517,1.78754742 6.7549963,1.87011828 6.64396743,1.9459942 C6.47298298,2.06650301 6.30199852,2.18031689 6.13101406,2.29189913 C6.12213175,2.29859406 6.11324944,2.30305735 6.10436714,2.30975229 C5.86454478,2.46373577 5.62472243,2.61325597 5.3826795,2.75384959 C5.20281273,2.86096853 5.02738712,2.9591609 4.85418209,3.05288998 C4.84752036,3.05735327 4.83863805,3.06181656 4.83197631,3.06627985 C4.09918579,3.46351261 3.4507772,3.7424682 2.97557365,3.88306182 C2.75129534,3.96340103 2.52701702,4.03927695 2.30273871,4.10622629 C1.61213916,4.32939076 0.806069578,4.4811426 0.00222057735,4.53470208 L0,4.53470208 C0.0244263509,4.89622852 0.0466321244,5.37603214 0.0754996299,5.89377371 L0.0910436714,5.89377371 C0.22649889,7.83084133 0.612879349,10.5846909 1.19467061,12.204865 C1.22131754,12.2762776 1.24352332,12.3499219 1.26794967,12.4191029 C1.28127313,12.4525775 1.2945966,12.4815889 1.30792006,12.5150636 C2.70244264,16.1325597 5.12509252,18.7659005 8.03626943,19.7322026 L8.03626943,19.7433609 C8.42042931,19.8705646 8.7446336,19.9509038 9.00222058,20 C9.25758697,19.9509038 9.58179127,19.8705646 9.96817172,19.7433609 L9.96817172,19.7322026 C12.8793486,18.7681321 15.3019985,16.1347913 16.6965211,12.5150636 C16.7098446,12.4815889 16.723168,12.4525775 16.7364915,12.4191029 C16.7631384,12.3499219 16.7853442,12.2762776 16.8097705,12.204865 C17.3915618,10.5869226 17.7779423,7.83084133 17.9133975,5.89377371 L17.9289415,5.89377371 C17.9555885,5.37380049 17.9800148,4.89622852 18,4.53470208 Z M16.9496669,5.46976121 L16.938564,5.68176746 C16.9274611,5.73086365 16.9185788,5.77995983 16.9163583,5.82905601 C16.7897853,7.63222495 16.4367135,10.3035037 15.8660252,11.8879714 C15.8504811,11.9303727 15.8349371,11.9750056 15.8216136,12.0196385 C15.8127313,12.0464182 15.803849,12.0754296 15.7905255,12.1111359 C15.7794226,12.1379156 15.7683198,12.166927 15.7594375,12.1870118 C14.4626203,15.5501004 12.2331606,17.9736666 9.64174685,18.8328498 C9.59955588,18.8462397 9.55958549,18.8640928 9.5196151,18.881946 C9.34418949,18.9377371 9.17098446,18.9846017 9.00444115,19.0225396 C8.83789785,18.9846017 8.6669134,18.9377371 8.49148779,18.881946 C8.45151739,18.8618612 8.411547,18.8462397 8.36935603,18.8328498 C5.77794226,17.9736666 3.54848261,15.5523321 2.25388601,12.1937068 C2.24278312,12.166927 2.23390081,12.1401473 2.2161362,12.0999777 C2.20725389,12.0731979 2.19837158,12.0464182 2.18726869,12.0196385 C2.17172465,11.9750056 2.15840118,11.9326043 2.14507772,11.8946664 C1.57216876,10.3057353 1.21909697,7.63222495 1.09252406,5.83128766 C1.0880829,5.77995983 1.08142117,5.73086365 1.07031828,5.68399911 L1.0592154,5.47645615 C1.05699482,5.44298148 1.05477424,5.40950681 1.05477424,5.37826378 C1.60103627,5.29346128 2.12953368,5.17072082 2.60917839,5.01673734 C2.8334567,4.94978799 3.06217617,4.87391207 3.30643967,4.78464628 C3.86602517,4.61504129 4.56106588,4.3115376 5.31606218,3.90091497 C5.32938564,3.89422004 5.3427091,3.88752511 5.35381199,3.88083017 C5.53589933,3.7826378 5.72464841,3.67551886 5.90451517,3.56839991 C6.14211695,3.43226958 6.39304219,3.2782861 6.67061436,3.09752287 C6.67949667,3.09305958 6.69282013,3.08413301 6.69948187,3.07966972 C6.88156921,2.96139255 7.06365655,2.83865209 7.23464101,2.71814327 C7.33456699,2.64896229 7.43671355,2.57531801 7.5388601,2.50167373 L7.59215396,2.46150413 L7.68097705,2.39678643 C7.73871207,2.35661683 7.79644708,2.31421558 7.84752036,2.27404597 C8.2450037,1.97500558 8.63138416,1.66034367 9.00222058,1.33452354 C9.37305699,1.66257532 9.75721688,1.97500558 10.1524796,2.27181433 C10.2102147,2.31421558 10.2657291,2.35661683 10.3234641,2.39678643 L10.4189489,2.46596742 L10.4544782,2.49051551 C10.5610659,2.56862308 10.6676536,2.644499 10.765359,2.71144834 C10.9452258,2.83865209 11.1273131,2.96139255 11.2916358,3.06851149 L11.3382679,3.09752287 C11.6136195,3.27605445 11.8645448,3.43003794 12.0954848,3.56170498 C12.2864545,3.67328721 12.472983,3.78040616 12.6506292,3.87636688 C12.6595115,3.88083017 12.6728349,3.88752511 12.6839378,3.89422004 C13.4433753,4.30484267 14.1406366,4.610578 14.7024426,4.78018299 C14.9467061,4.86721714 15.1754256,4.94309306 15.3819393,5.00557911 C15.8726869,5.16402589 16.4056255,5.28676635 16.9541081,5.37380049 C16.9518875,5.40504352 16.9496669,5.43851819 16.9496669,5.46976121 Z M13.4056255,7.74827048 L8.19837158,13.1131444 L5.53367876,10.3682214 C5.34937084,10.1785316 5.04959289,10.1785316 4.86528497,10.3682214 C4.68097705,10.5579112 4.68097705,10.8658782 4.86528497,11.0577996 L7.86528497,14.1486275 C7.95854922,14.2445883 8.0784604,14.2914528 8.20059215,14.2914528 C8.32050333,14.2914528 8.44263509,14.2445883 8.53367876,14.1486275 L14.0740192,8.44231198 C14.2583272,8.25262218 14.2583272,7.94465521 14.0740192,7.75273376 C13.8897113,7.55858067 13.5899334,7.55858067 13.4056255,7.74827048 Z" id="形状"></path>
                                </g>
                            </g>
                        </g>
                    </g>
                </g>
            </g>
        </g>
    </g>
</svg>