<?xml version="1.0" encoding="UTF-8"?>
<svg width="15px" height="25px" viewBox="0 0 15 25" version="1.1" xmlns="http://www.w3.org/2000/svg" xmlns:xlink="http://www.w3.org/1999/xlink">
    <!-- Generator: Sketch 63 (92445) - https://sketch.com -->
    <title>手机</title>
    <desc>Created with Sketch.</desc>
    <g id="页面-1" stroke="none" stroke-width="1" fill="none" fill-rule="evenodd" opacity="0.6">
        <g id="画板备份" transform="translate(-835.000000, -381.000000)" fill="#000000" fill-rule="nonzero">
            <g id="编组-2" transform="translate(785.000000, 231.000000)">
                <g id="手机" transform="translate(50.000000, 150.000000)">
                    <g id="编组-3">
                        <path d="M13.0102041,0.9375 C13.622449,0.9375 14.0816327,1.40625 14.0816327,2.03125 L14.0816327,22.96875 C14.0816327,23.59375 13.622449,24.0625 13.0102041,24.0625 L1.98979592,24.0625 C1.37755102,24.0625 0.918367347,23.59375 0.918367347,22.96875 L0.918367347,2.03125 C0.918367347,1.40625 1.37755102,0.9375 1.98979592,0.9375 L13.0102041,0.9375 M13.0102041,0 L1.98979592,0 C0.918367347,0 0,0.9375 0,2.03125 L0,22.96875 C0,24.0625 0.918367347,25 1.98979592,25 L13.0102041,25 C14.0816327,25 15,24.0625 15,22.96875 L15,2.03125 C15,0.9375 14.0816327,0 13.0102041,0 Z" id="形状"></path>
                        <path d="M11.5645161,23 L3.43548387,23 C3.14516129,23 3,22.8445946 3,22.5337838 C3,22.222973 3.14516129,22.0675676 3.43548387,22.0675676 L11.5645161,22.0675676 C11.8548387,22.0675676 12,22.222973 12,22.5337838 C12,22.8445946 11.8548387,23 11.5645161,23 Z M9.38709677,2.33108108 L5.61290323,2.33108108 C4.74193548,2.33108108 3.87096774,1.70945946 3.87096774,1.08783784 L3.87096774,0.621621622 C3.72580645,0.310810811 3.87096774,0 4.16129032,0 C4.30645161,0 4.59677419,0.155405405 4.59677419,0.310810811 L4.59677419,0.777027027 C4.59677419,1.08783784 5.03225806,1.24324324 5.46774194,1.24324324 L9.24193548,1.24324324 C9.67741935,1.24324324 10.1129032,0.932432432 10.1129032,0.777027027 L10.4032258,0.310810811 C10.4032258,0.155405405 10.6935484,0 10.8387097,0 C11.1290323,0 11.2741935,0.310810811 11.1290323,0.466216216 L11.1290323,0.932432432 C11.1290323,1.70945946 10.2580645,2.33108108 9.38709677,2.33108108 Z" id="形状"></path>
                    </g>
                </g>
            </g>
        </g>
    </g>
</svg>